<svg xmlns="http://www.w3.org/2000/svg" xmlns:xlink="http://www.w3.org/1999/xlink" width="45" zoomAndPan="magnify" viewBox="0 0 33.75 33.749999" height="45" preserveAspectRatio="xMidYMid meet" version="1.0"><defs><clipPath id="a844cc8d7d"><path d="M 30 13 L 33.5 13 L 33.5 25 L 30 25 Z M 30 13 " clip-rule="nonzero"/></clipPath><clipPath id="9045d76c00"><path d="M 0 23 L 33.5 23 L 33.5 33.5 L 0 33.5 Z M 0 23 " clip-rule="nonzero"/></clipPath></defs><path fill="#5b8d50" d="M 4.039062 10.476562 L 4.03125 10.476562 C 3.601562 10.476562 3.183594 10.390625 2.789062 10.222656 C 1.632812 9.726562 0.886719 8.589844 0.886719 7.328125 L 0.886719 3.152344 C 0.886719 1.417969 2.296875 0.00390625 4.03125 0.00390625 C 5.292969 0.00390625 6.429688 0.753906 6.925781 1.910156 C 7.09375 2.304688 7.179688 2.722656 7.179688 3.152344 L 7.179688 7.328125 C 7.179688 9.0625 5.769531 10.472656 4.039062 10.476562 Z M 4.035156 0.550781 C 2.597656 0.550781 1.429688 1.71875 1.429688 3.152344 L 1.429688 7.328125 C 1.429688 8.371094 2.046875 9.3125 3.003906 9.722656 C 3.328125 9.863281 3.675781 9.933594 4.03125 9.933594 L 4.039062 9.933594 C 5.46875 9.929688 6.632812 8.761719 6.632812 7.328125 L 6.632812 3.152344 C 6.632812 2.796875 6.5625 2.453125 6.421875 2.125 C 6.015625 1.167969 5.074219 0.550781 4.035156 0.550781 Z M 4.035156 0.550781 " fill-opacity="1" fill-rule="nonzero"/><path fill="#5b8d50" d="M 3.195312 24.492188 L 0.273438 24.492188 C 0.121094 24.492188 0 24.371094 0 24.222656 L 0 15.550781 C 0 15.171875 0.164062 14.820312 0.453125 14.589844 L 1.433594 13.792969 C 1.867188 13.441406 2.46875 13.441406 2.902344 13.792969 L 3.886719 14.589844 C 4.128906 14.785156 4.289062 15.070312 4.328125 15.390625 C 4.332031 15.394531 4.332031 15.398438 4.332031 15.398438 C 4.335938 15.453125 4.339844 15.503906 4.339844 15.550781 L 4.339844 22.4375 C 4.339844 22.589844 4.21875 22.710938 4.066406 22.710938 L 3.078125 22.710938 C 3.089844 22.871094 3.109375 23.03125 3.140625 23.1875 C 3.203125 23.503906 3.304688 23.8125 3.441406 24.105469 C 3.480469 24.1875 3.476562 24.289062 3.425781 24.367188 C 3.375 24.445312 3.289062 24.492188 3.195312 24.492188 Z M 0.542969 23.949219 L 2.789062 23.949219 C 2.710938 23.734375 2.648438 23.515625 2.605469 23.292969 C 2.550781 23.011719 2.523438 22.726562 2.523438 22.4375 C 2.523438 22.289062 2.644531 22.167969 2.796875 22.167969 L 3.792969 22.167969 L 3.792969 15.550781 C 3.792969 15.523438 3.792969 15.492188 3.789062 15.457031 C 3.765625 15.277344 3.679688 15.121094 3.542969 15.011719 L 2.558594 14.214844 C 2.328125 14.027344 2.007812 14.027344 1.777344 14.214844 L 0.796875 15.011719 C 0.636719 15.136719 0.542969 15.339844 0.542969 15.550781 Z M 0.542969 23.949219 " fill-opacity="1" fill-rule="nonzero"/><path fill="#5b8d50" d="M 7.84375 22.710938 L 4.050781 22.710938 C 3.902344 22.710938 3.78125 22.589844 3.78125 22.4375 L 3.78125 15.550781 C 3.78125 15.496094 3.78125 15.445312 3.789062 15.390625 C 3.828125 15.074219 3.988281 14.785156 4.230469 14.589844 L 5.214844 13.792969 C 5.644531 13.441406 6.25 13.441406 6.683594 13.792969 L 7.664062 14.589844 C 7.910156 14.785156 8.066406 15.070312 8.109375 15.390625 C 8.109375 15.394531 8.109375 15.398438 8.109375 15.398438 C 8.113281 15.453125 8.117188 15.503906 8.117188 15.550781 L 8.117188 22.4375 C 8.117188 22.589844 7.996094 22.710938 7.84375 22.710938 Z M 4.324219 22.167969 L 7.574219 22.167969 L 7.574219 15.550781 C 7.574219 15.523438 7.570312 15.492188 7.566406 15.457031 C 7.542969 15.277344 7.457031 15.121094 7.324219 15.011719 L 6.339844 14.214844 C 6.109375 14.027344 5.789062 14.027344 5.558594 14.214844 L 4.574219 15.011719 C 4.4375 15.121094 4.351562 15.28125 4.332031 15.460938 C 4.324219 15.492188 4.324219 15.519531 4.324219 15.546875 Z M 4.324219 22.167969 " fill-opacity="1" fill-rule="nonzero"/><path fill="#5b8d50" d="M 11.625 22.710938 L 7.832031 22.710938 C 7.679688 22.710938 7.558594 22.589844 7.558594 22.4375 L 7.558594 15.550781 C 7.558594 15.496094 7.5625 15.445312 7.570312 15.390625 C 7.609375 15.070312 7.765625 14.785156 8.011719 14.589844 L 8.996094 13.792969 C 9.425781 13.441406 10.027344 13.441406 10.460938 13.792969 L 11.445312 14.589844 C 11.492188 14.625 11.53125 14.664062 11.570312 14.707031 C 11.585938 14.722656 11.605469 14.746094 11.625 14.769531 C 11.636719 14.78125 11.644531 14.796875 11.65625 14.8125 C 11.675781 14.835938 11.691406 14.859375 11.707031 14.882812 C 11.710938 14.890625 11.714844 14.902344 11.722656 14.910156 C 11.738281 14.9375 11.753906 14.96875 11.769531 15 C 11.777344 15.015625 11.789062 15.035156 11.796875 15.058594 C 11.8125 15.089844 11.820312 15.117188 11.828125 15.140625 C 11.832031 15.148438 11.835938 15.15625 11.835938 15.164062 C 11.847656 15.195312 11.855469 15.222656 11.859375 15.25 C 11.867188 15.273438 11.871094 15.296875 11.878906 15.328125 C 11.882812 15.347656 11.886719 15.367188 11.886719 15.386719 C 11.886719 15.394531 11.890625 15.402344 11.890625 15.410156 C 11.894531 15.460938 11.898438 15.503906 11.898438 15.550781 L 11.898438 22.4375 C 11.898438 22.589844 11.773438 22.710938 11.625 22.710938 Z M 8.101562 22.167969 L 11.351562 22.167969 L 11.351562 15.550781 C 11.351562 15.523438 11.351562 15.492188 11.347656 15.457031 C 11.347656 15.449219 11.347656 15.445312 11.34375 15.441406 C 11.34375 15.429688 11.339844 15.417969 11.339844 15.40625 C 11.339844 15.402344 11.335938 15.390625 11.332031 15.378906 C 11.332031 15.375 11.328125 15.367188 11.328125 15.363281 C 11.328125 15.359375 11.324219 15.351562 11.324219 15.34375 C 11.324219 15.34375 11.320312 15.339844 11.320312 15.339844 C 11.320312 15.332031 11.316406 15.320312 11.3125 15.308594 C 11.304688 15.292969 11.300781 15.285156 11.296875 15.273438 C 11.296875 15.273438 11.296875 15.269531 11.296875 15.269531 C 11.292969 15.257812 11.285156 15.25 11.28125 15.238281 C 11.28125 15.234375 11.277344 15.230469 11.277344 15.226562 C 11.269531 15.21875 11.265625 15.207031 11.261719 15.203125 C 11.257812 15.195312 11.25 15.183594 11.246094 15.175781 C 11.242188 15.171875 11.238281 15.164062 11.238281 15.160156 C 11.234375 15.15625 11.230469 15.152344 11.230469 15.148438 C 11.222656 15.140625 11.214844 15.128906 11.207031 15.121094 L 11.207031 15.117188 C 11.199219 15.113281 11.195312 15.105469 11.1875 15.097656 C 11.1875 15.09375 11.183594 15.089844 11.179688 15.085938 C 11.175781 15.082031 11.171875 15.078125 11.167969 15.074219 C 11.148438 15.050781 11.125 15.03125 11.101562 15.011719 L 10.117188 14.214844 C 9.886719 14.027344 9.566406 14.027344 9.339844 14.214844 L 8.355469 15.011719 C 8.21875 15.121094 8.132812 15.28125 8.109375 15.460938 C 8.105469 15.492188 8.101562 15.519531 8.101562 15.546875 Z M 11.839844 15.1875 Z M 11.242188 15.171875 Z M 11.199219 15.105469 Z M 11.183594 15.089844 Z M 11.183594 15.089844 " fill-opacity="1" fill-rule="nonzero"/><path fill="#5b8d50" d="M 11.625 24.492188 C 11.515625 24.492188 11.414062 24.425781 11.371094 24.328125 C 11.347656 24.265625 11.34375 24.195312 11.363281 24.132812 C 11.398438 24.023438 11.503906 23.941406 11.625 23.941406 C 11.773438 23.941406 11.898438 24.0625 11.898438 24.214844 L 11.898438 24.222656 C 11.898438 24.371094 11.773438 24.492188 11.625 24.492188 Z M 11.625 24.492188 " fill-opacity="1" fill-rule="nonzero"/><path fill="#5b8d50" d="M 15.402344 24.492188 L 11.621094 24.492188 C 11.511719 24.492188 11.414062 24.425781 11.371094 24.328125 C 11.34375 24.257812 11.34375 24.183594 11.371094 24.117188 C 11.375 24.109375 11.375 24.105469 11.378906 24.097656 C 11.511719 23.820312 11.609375 23.53125 11.667969 23.238281 C 11.703125 23.0625 11.726562 22.886719 11.742188 22.710938 L 11.609375 22.710938 C 11.460938 22.710938 11.339844 22.589844 11.339844 22.4375 L 11.339844 15.550781 C 11.339844 15.5 11.339844 15.453125 11.347656 15.40625 C 11.347656 15.402344 11.347656 15.398438 11.347656 15.394531 C 11.386719 15.074219 11.542969 14.785156 11.789062 14.589844 L 12.773438 13.792969 C 13.203125 13.441406 13.808594 13.441406 14.242188 13.792969 L 15.222656 14.589844 C 15.507812 14.816406 15.675781 15.175781 15.675781 15.550781 L 15.675781 24.222656 C 15.675781 24.371094 15.554688 24.492188 15.402344 24.492188 Z M 11.351562 24.214844 Z M 11.351562 24.214844 Z M 11.351562 24.214844 Z M 11.351562 24.210938 Z M 11.425781 24.03125 Z M 11.425781 24.03125 Z M 11.429688 24.03125 L 11.425781 24.03125 Z M 12.03125 23.949219 L 15.132812 23.949219 L 15.132812 15.550781 C 15.132812 15.339844 15.039062 15.136719 14.882812 15.011719 L 13.898438 14.214844 C 13.667969 14.027344 13.347656 14.027344 13.117188 14.214844 L 12.132812 15.011719 C 12 15.117188 11.914062 15.277344 11.890625 15.453125 C 11.890625 15.457031 11.886719 15.460938 11.886719 15.46875 C 11.882812 15.492188 11.882812 15.519531 11.882812 15.550781 L 11.882812 22.167969 L 12.023438 22.167969 C 12.171875 22.167969 12.292969 22.289062 12.292969 22.4375 C 12.292969 22.738281 12.261719 23.046875 12.203125 23.347656 C 12.160156 23.550781 12.101562 23.75 12.03125 23.949219 Z M 12.03125 23.949219 " fill-opacity="1" fill-rule="nonzero"/><path fill="#5b8d50" d="M 18.683594 24.492188 L 15.390625 24.492188 C 15.238281 24.492188 15.117188 24.371094 15.117188 24.222656 L 15.117188 15.550781 C 15.117188 15.171875 15.28125 14.820312 15.570312 14.589844 L 16.554688 13.792969 C 16.984375 13.441406 17.585938 13.441406 18.019531 13.792969 L 19.003906 14.589844 C 19.246094 14.785156 19.40625 15.070312 19.445312 15.390625 C 19.449219 15.398438 19.449219 15.40625 19.449219 15.410156 C 19.453125 15.460938 19.457031 15.503906 19.457031 15.550781 L 19.457031 18.203125 C 19.457031 18.355469 19.332031 18.476562 19.183594 18.476562 L 16.386719 18.476562 C 16.378906 18.476562 16.371094 18.476562 16.367188 18.476562 C 16.035156 18.484375 15.765625 18.761719 15.765625 19.097656 L 15.765625 20.699219 C 15.765625 21.035156 16.035156 21.3125 16.371094 21.320312 L 19.183594 21.320312 C 19.332031 21.320312 19.457031 21.441406 19.457031 21.59375 L 19.457031 21.90625 C 19.457031 21.925781 19.453125 21.945312 19.449219 21.964844 L 18.949219 24.277344 C 18.921875 24.402344 18.8125 24.492188 18.683594 24.492188 Z M 15.660156 23.949219 L 18.464844 23.949219 L 18.910156 21.878906 L 18.910156 21.863281 L 16.367188 21.863281 C 16.367188 21.863281 16.367188 21.863281 16.363281 21.863281 C 16.097656 21.859375 15.855469 21.765625 15.660156 21.609375 Z M 16.402344 18.472656 C 16.402344 18.472656 16.402344 18.472656 16.402344 18.476562 C 16.402344 18.476562 16.402344 18.476562 16.402344 18.472656 Z M 16.402344 18.472656 Z M 16.402344 18.472656 Z M 16.402344 18.472656 Z M 17.285156 14.074219 C 17.148438 14.074219 17.011719 14.121094 16.898438 14.214844 L 15.910156 15.011719 C 15.753906 15.136719 15.660156 15.339844 15.660156 15.550781 L 15.660156 18.1875 C 15.847656 18.035156 16.085938 17.941406 16.339844 17.933594 C 16.359375 17.933594 16.375 17.933594 16.382812 17.933594 L 18.910156 17.933594 L 18.910156 15.550781 C 18.910156 15.523438 18.910156 15.492188 18.90625 15.457031 C 18.90625 15.457031 18.90625 15.453125 18.90625 15.453125 C 18.878906 15.273438 18.792969 15.117188 18.660156 15.011719 L 17.675781 14.214844 C 17.5625 14.121094 17.421875 14.074219 17.285156 14.074219 Z M 17.285156 14.074219 " fill-opacity="1" fill-rule="nonzero"/><path fill="#5b8d50" d="M 19.167969 22.25 C 19.160156 22.25 19.148438 22.246094 19.140625 22.246094 C 19 22.230469 18.894531 22.117188 18.894531 21.976562 L 18.894531 21.59375 C 18.894531 21.441406 19.019531 21.320312 19.167969 21.320312 L 19.25 21.320312 C 19.332031 21.320312 19.410156 21.355469 19.464844 21.421875 C 19.515625 21.484375 19.535156 21.570312 19.519531 21.648438 L 19.433594 22.035156 C 19.40625 22.160156 19.296875 22.25 19.167969 22.25 Z M 19.167969 22.25 " fill-opacity="1" fill-rule="nonzero"/><path fill="#5b8d50" d="M 22.960938 24.492188 L 20.734375 24.492188 C 20.652344 24.492188 20.574219 24.457031 20.519531 24.390625 C 20.46875 24.328125 20.449219 24.242188 20.46875 24.164062 L 21.042969 21.535156 C 21.070312 21.410156 21.183594 21.320312 21.308594 21.320312 L 22.960938 21.320312 C 23.113281 21.320312 23.234375 21.441406 23.234375 21.59375 L 23.234375 24.222656 C 23.234375 24.371094 23.113281 24.492188 22.960938 24.492188 Z M 21.070312 23.949219 L 22.691406 23.949219 L 22.691406 21.863281 L 21.53125 21.863281 Z M 21.070312 23.949219 " fill-opacity="1" fill-rule="nonzero"/><path fill="#5b8d50" d="M 22.960938 18.476562 L 19.167969 18.476562 C 19.019531 18.476562 18.894531 18.355469 18.894531 18.203125 L 18.894531 15.550781 C 18.894531 15.5 18.898438 15.453125 18.90625 15.40625 C 18.90625 15.402344 18.90625 15.398438 18.90625 15.394531 C 18.945312 15.074219 19.101562 14.785156 19.347656 14.589844 L 20.332031 13.792969 C 20.761719 13.441406 21.367188 13.441406 21.796875 13.792969 L 22.78125 14.589844 C 23.027344 14.785156 23.183594 15.070312 23.226562 15.390625 C 23.226562 15.394531 23.226562 15.398438 23.226562 15.398438 C 23.230469 15.453125 23.234375 15.503906 23.234375 15.550781 L 23.234375 18.203125 C 23.234375 18.355469 23.113281 18.476562 22.960938 18.476562 Z M 19.441406 17.933594 L 22.691406 17.933594 L 22.691406 15.550781 C 22.691406 15.523438 22.6875 15.492188 22.683594 15.457031 C 22.660156 15.277344 22.574219 15.121094 22.441406 15.011719 L 21.457031 14.214844 C 21.226562 14.027344 20.902344 14.027344 20.675781 14.214844 L 19.691406 15.011719 C 19.558594 15.117188 19.472656 15.277344 19.449219 15.453125 C 19.449219 15.457031 19.445312 15.460938 19.445312 15.46875 C 19.441406 15.492188 19.441406 15.519531 19.441406 15.550781 Z M 19.441406 17.933594 " fill-opacity="1" fill-rule="nonzero"/><path fill="#5b8d50" d="M 25.476562 24.492188 L 22.945312 24.492188 C 22.796875 24.492188 22.675781 24.371094 22.675781 24.222656 L 22.675781 21.59375 C 22.675781 21.441406 22.796875 21.320312 22.945312 21.320312 L 24.902344 21.320312 C 25.027344 21.320312 25.140625 21.410156 25.167969 21.535156 L 25.742188 24.164062 C 25.761719 24.242188 25.742188 24.328125 25.6875 24.390625 C 25.636719 24.457031 25.558594 24.492188 25.476562 24.492188 Z M 23.21875 23.949219 L 25.140625 23.949219 L 24.984375 23.238281 L 24.679688 21.863281 L 23.21875 21.863281 Z M 23.21875 23.949219 " fill-opacity="1" fill-rule="nonzero"/><path fill="#5b8d50" d="M 26.742188 18.476562 L 22.945312 18.476562 C 22.796875 18.476562 22.675781 18.355469 22.675781 18.203125 L 22.675781 15.550781 C 22.675781 15.496094 22.679688 15.445312 22.683594 15.390625 C 22.726562 15.070312 22.882812 14.785156 23.128906 14.589844 L 24.113281 13.792969 C 24.542969 13.441406 25.144531 13.441406 25.578125 13.792969 L 26.5625 14.589844 C 26.804688 14.785156 26.964844 15.070312 27.003906 15.390625 C 27.003906 15.394531 27.003906 15.398438 27.003906 15.398438 C 27.011719 15.453125 27.015625 15.503906 27.015625 15.550781 L 27.015625 18.203125 C 27.015625 18.355469 26.890625 18.476562 26.742188 18.476562 Z M 23.21875 17.933594 L 26.46875 17.933594 L 26.46875 15.550781 C 26.46875 15.523438 26.46875 15.492188 26.464844 15.457031 C 26.441406 15.277344 26.351562 15.121094 26.21875 15.011719 L 25.234375 14.214844 C 25.003906 14.027344 24.683594 14.027344 24.453125 14.214844 L 23.46875 15.011719 C 23.335938 15.121094 23.246094 15.28125 23.226562 15.460938 C 23.222656 15.492188 23.21875 15.519531 23.21875 15.550781 Z M 23.21875 17.933594 " fill-opacity="1" fill-rule="nonzero"/><path fill="#5b8d50" d="M 30.519531 24.492188 L 27.527344 24.492188 C 27.398438 24.492188 27.289062 24.402344 27.261719 24.277344 L 26.695312 21.648438 C 26.675781 21.570312 26.695312 21.484375 26.746094 21.421875 C 26.800781 21.355469 26.878906 21.320312 26.960938 21.320312 L 29.886719 21.320312 C 30.046875 21.320312 30.199219 21.257812 30.316406 21.148438 C 30.324219 21.140625 30.339844 21.125 30.355469 21.113281 C 30.4375 21.050781 30.550781 21.039062 30.640625 21.085938 C 30.734375 21.132812 30.792969 21.226562 30.792969 21.332031 L 30.792969 24.222656 C 30.792969 24.371094 30.671875 24.492188 30.519531 24.492188 Z M 27.746094 23.949219 L 30.246094 23.949219 L 30.246094 21.808594 C 30.132812 21.84375 30.011719 21.863281 29.886719 21.863281 L 27.296875 21.863281 Z M 27.746094 23.949219 " fill-opacity="1" fill-rule="nonzero"/><path fill="#5b8d50" d="M 30.519531 18.738281 C 30.460938 18.738281 30.402344 18.71875 30.355469 18.683594 C 30.335938 18.667969 30.324219 18.65625 30.316406 18.648438 C 30.199219 18.539062 30.046875 18.476562 29.886719 18.476562 L 26.726562 18.476562 C 26.578125 18.476562 26.453125 18.355469 26.453125 18.203125 L 26.453125 15.550781 C 26.453125 15.496094 26.457031 15.445312 26.464844 15.390625 C 26.503906 15.070312 26.664062 14.785156 26.90625 14.589844 L 27.890625 13.792969 C 28.320312 13.441406 28.925781 13.441406 29.355469 13.792969 L 30.339844 14.589844 C 30.585938 14.785156 30.742188 15.070312 30.785156 15.390625 C 30.785156 15.394531 30.785156 15.398438 30.785156 15.398438 C 30.789062 15.453125 30.792969 15.503906 30.792969 15.550781 L 30.792969 18.464844 C 30.792969 18.570312 30.734375 18.664062 30.640625 18.710938 C 30.601562 18.730469 30.5625 18.738281 30.519531 18.738281 Z M 27 17.933594 L 29.886719 17.933594 C 30.011719 17.933594 30.132812 17.953125 30.246094 17.988281 L 30.246094 15.550781 C 30.246094 15.523438 30.246094 15.492188 30.242188 15.457031 C 30.21875 15.277344 30.132812 15.121094 30 15.011719 L 29.015625 14.214844 C 28.785156 14.027344 28.460938 14.027344 28.234375 14.214844 L 27.25 15.011719 C 27.113281 15.121094 27.027344 15.28125 27.003906 15.460938 C 27 15.492188 27 15.519531 27 15.550781 Z M 27 17.933594 " fill-opacity="1" fill-rule="nonzero"/><g clip-path="url(#a844cc8d7d)"><path fill="#5b8d50" d="M 34.300781 24.492188 L 30.503906 24.492188 C 30.355469 24.492188 30.234375 24.371094 30.234375 24.222656 L 30.234375 21.34375 C 30.234375 21.273438 30.261719 21.203125 30.3125 21.152344 C 30.316406 21.144531 30.324219 21.140625 30.332031 21.132812 C 30.445312 21.011719 30.507812 20.859375 30.507812 20.699219 L 30.507812 19.097656 C 30.507812 18.9375 30.445312 18.78125 30.332031 18.664062 C 30.324219 18.65625 30.316406 18.648438 30.3125 18.644531 C 30.261719 18.59375 30.234375 18.523438 30.234375 18.453125 L 30.234375 15.550781 C 30.234375 15.496094 30.238281 15.445312 30.242188 15.390625 C 30.28125 15.070312 30.441406 14.785156 30.6875 14.589844 L 31.667969 13.792969 C 32.097656 13.441406 32.703125 13.441406 33.136719 13.792969 L 34.121094 14.589844 C 34.40625 14.820312 34.570312 15.171875 34.570312 15.550781 L 34.570312 24.222656 C 34.570312 24.371094 34.449219 24.492188 34.300781 24.492188 Z M 30.777344 23.949219 L 34.027344 23.949219 L 34.027344 15.550781 C 34.027344 15.339844 33.933594 15.136719 33.777344 15.011719 L 32.792969 14.214844 C 32.5625 14.027344 32.242188 14.027344 32.011719 14.214844 L 31.027344 15.011719 C 30.894531 15.121094 30.804688 15.28125 30.785156 15.460938 C 30.78125 15.492188 30.777344 15.519531 30.777344 15.550781 L 30.777344 18.34375 C 30.953125 18.554688 31.050781 18.820312 31.050781 19.097656 L 31.050781 20.699219 C 31.050781 20.976562 30.953125 21.242188 30.777344 21.453125 Z M 30.683594 21.546875 Z M 30.683594 21.546875 Z M 30.683594 18.25 Z M 30.683594 18.25 Z M 30.683594 18.25 " fill-opacity="1" fill-rule="nonzero"/></g><g clip-path="url(#9045d76c00)"><path fill="#5b8d50" d="M 34.300781 33.496094 L 0.273438 33.496094 C 0.121094 33.496094 0 33.375 0 33.222656 L 0 24.222656 C 0 24.070312 0.121094 23.949219 0.273438 23.949219 L 3.195312 23.949219 C 3.300781 23.949219 3.398438 24.007812 3.441406 24.105469 C 3.714844 24.675781 4.125 25.179688 4.636719 25.5625 C 4.859375 25.730469 5.101562 25.871094 5.347656 25.984375 C 5.855469 26.214844 6.398438 26.335938 6.960938 26.335938 L 7.855469 26.335938 C 8.472656 26.335938 9.0625 26.191406 9.609375 25.914062 C 9.980469 25.730469 10.316406 25.484375 10.609375 25.191406 C 10.925781 24.875 11.183594 24.507812 11.375 24.105469 C 11.421875 24.007812 11.515625 23.949219 11.621094 23.949219 L 18.683594 23.949219 C 18.765625 23.949219 18.84375 23.984375 18.894531 24.050781 C 18.945312 24.113281 18.964844 24.199219 18.949219 24.277344 L 17.636719 30.347656 C 17.632812 30.375 17.644531 30.398438 17.652344 30.40625 C 17.660156 30.417969 17.679688 30.433594 17.707031 30.433594 L 19.035156 30.433594 C 19.066406 30.433594 19.097656 30.410156 19.101562 30.378906 L 20.46875 24.164062 C 20.496094 24.039062 20.605469 23.949219 20.734375 23.949219 L 25.476562 23.949219 C 25.605469 23.949219 25.714844 24.039062 25.742188 24.164062 L 26.167969 26.101562 L 27.109375 30.378906 C 27.113281 30.410156 27.144531 30.433594 27.175781 30.433594 L 28.503906 30.433594 C 28.535156 30.433594 28.550781 30.417969 28.558594 30.40625 C 28.570312 30.394531 28.578125 30.375 28.574219 30.351562 L 27.261719 24.277344 C 27.246094 24.199219 27.265625 24.113281 27.316406 24.050781 C 27.367188 23.984375 27.445312 23.949219 27.527344 23.949219 L 34.300781 23.949219 C 34.449219 23.949219 34.570312 24.070312 34.570312 24.222656 L 34.570312 33.226562 C 34.570312 33.375 34.449219 33.496094 34.300781 33.496094 Z M 0.542969 32.953125 L 34.027344 32.953125 L 34.027344 24.492188 L 27.863281 24.492188 L 29.105469 30.234375 C 29.144531 30.414062 29.101562 30.601562 28.984375 30.746094 C 28.867188 30.894531 28.691406 30.976562 28.503906 30.976562 L 27.175781 30.976562 C 26.886719 30.976562 26.636719 30.78125 26.574219 30.496094 L 25.636719 26.214844 L 25.257812 24.492188 L 20.953125 24.492188 L 19.636719 30.496094 C 19.574219 30.78125 19.324219 30.976562 19.035156 30.976562 L 17.707031 30.976562 C 17.519531 30.976562 17.347656 30.894531 17.230469 30.75 C 17.113281 30.605469 17.066406 30.417969 17.105469 30.234375 L 18.347656 24.492188 L 11.789062 24.492188 C 11.582031 24.894531 11.3125 25.257812 10.992188 25.578125 C 10.660156 25.910156 10.277344 26.1875 9.855469 26.402344 C 9.242188 26.714844 8.550781 26.878906 7.855469 26.878906 L 6.960938 26.878906 C 6.320312 26.878906 5.703125 26.746094 5.125 26.480469 C 4.839844 26.351562 4.566406 26.191406 4.308594 26 C 3.777344 25.597656 3.335938 25.082031 3.027344 24.492188 L 0.542969 24.492188 Z M 0.542969 32.953125 " fill-opacity="1" fill-rule="nonzero"/></g><path fill="#5b8d50" d="M 2.613281 31.492188 C 2.539062 31.492188 2.46875 31.460938 2.414062 31.40625 C 2.3125 31.296875 2.316406 31.125 2.425781 31.023438 L 7.257812 26.410156 C 7.367188 26.308594 7.53125 26.308594 7.636719 26.410156 L 12.394531 31.023438 C 12.503906 31.128906 12.503906 31.300781 12.402344 31.40625 C 12.296875 31.515625 12.125 31.519531 12.015625 31.414062 L 7.445312 26.984375 L 2.800781 31.414062 C 2.746094 31.464844 2.679688 31.492188 2.613281 31.492188 Z M 2.613281 31.492188 " fill-opacity="1" fill-rule="nonzero"/><path fill="#5b8d50" d="M 7.449219 31.492188 C 7.296875 31.492188 7.175781 31.367188 7.175781 31.21875 L 7.175781 26.605469 C 7.175781 26.457031 7.296875 26.332031 7.449219 26.332031 C 7.597656 26.332031 7.71875 26.457031 7.71875 26.605469 L 7.71875 31.21875 C 7.71875 31.367188 7.597656 31.492188 7.449219 31.492188 Z M 7.449219 31.492188 " fill-opacity="1" fill-rule="nonzero"/><path fill="#5b8d50" d="M 7.855469 26.878906 L 6.960938 26.878906 C 6.320312 26.878906 5.703125 26.746094 5.125 26.480469 C 4.839844 26.351562 4.566406 26.191406 4.308594 26 C 3.730469 25.5625 3.257812 24.988281 2.949219 24.335938 C 2.792969 24.003906 2.675781 23.652344 2.605469 23.292969 C 2.550781 23.011719 2.523438 22.726562 2.523438 22.4375 C 2.523438 22.289062 2.644531 22.167969 2.796875 22.167969 L 12.023438 22.167969 C 12.171875 22.167969 12.292969 22.289062 12.292969 22.4375 C 12.292969 22.738281 12.261719 23.046875 12.203125 23.347656 C 12.132812 23.675781 12.023438 24.003906 11.878906 24.316406 C 11.875 24.324219 11.871094 24.335938 11.863281 24.347656 C 11.644531 24.804688 11.351562 25.21875 10.992188 25.578125 C 10.660156 25.910156 10.277344 26.1875 9.855469 26.402344 C 9.242188 26.714844 8.550781 26.878906 7.855469 26.878906 Z M 3.078125 22.710938 C 3.089844 22.871094 3.109375 23.03125 3.140625 23.1875 C 3.203125 23.503906 3.304688 23.8125 3.441406 24.105469 C 3.714844 24.675781 4.125 25.179688 4.636719 25.5625 C 4.859375 25.730469 5.101562 25.871094 5.347656 25.984375 C 5.855469 26.214844 6.398438 26.335938 6.960938 26.335938 L 7.855469 26.335938 C 8.472656 26.335938 9.0625 26.191406 9.609375 25.914062 C 9.980469 25.730469 10.316406 25.484375 10.609375 25.191406 C 10.925781 24.878906 11.179688 24.515625 11.371094 24.113281 C 11.375 24.105469 11.375 24.101562 11.378906 24.097656 C 11.511719 23.820312 11.609375 23.53125 11.667969 23.238281 C 11.703125 23.0625 11.726562 22.886719 11.742188 22.710938 Z M 11.351562 24.214844 Z M 11.351562 24.214844 Z M 11.351562 24.214844 Z M 11.351562 24.210938 Z M 11.425781 24.03125 Z M 11.425781 24.03125 Z M 11.425781 24.03125 Z M 11.425781 24.03125 Z M 11.429688 24.03125 C 11.429688 24.03125 11.429688 24.03125 11.425781 24.03125 C 11.429688 24.03125 11.429688 24.03125 11.429688 24.03125 Z M 11.429688 24.03125 " fill-opacity="1" fill-rule="nonzero"/><path fill="#5b8d50" d="M 29.886719 21.863281 L 16.367188 21.863281 C 16.367188 21.863281 16.367188 21.863281 16.363281 21.863281 C 15.734375 21.855469 15.21875 21.332031 15.21875 20.699219 L 15.21875 19.097656 C 15.21875 18.476562 15.71875 17.957031 16.339844 17.933594 C 16.359375 17.933594 16.375 17.933594 16.382812 17.933594 L 29.886719 17.933594 C 30.1875 17.933594 30.476562 18.046875 30.695312 18.257812 C 30.703125 18.265625 30.707031 18.269531 30.714844 18.277344 C 30.933594 18.496094 31.050781 18.789062 31.050781 19.097656 L 31.050781 20.699219 C 31.050781 21.007812 30.933594 21.300781 30.714844 21.519531 C 30.707031 21.527344 30.703125 21.53125 30.695312 21.539062 C 30.476562 21.75 30.1875 21.863281 29.886719 21.863281 Z M 30.683594 21.546875 Z M 30.519531 21.332031 Z M 16.371094 21.320312 L 29.886719 21.320312 C 30.046875 21.320312 30.199219 21.257812 30.316406 21.148438 C 30.320312 21.144531 30.328125 21.136719 30.332031 21.132812 C 30.445312 21.011719 30.507812 20.859375 30.507812 20.699219 L 30.507812 19.097656 C 30.507812 18.9375 30.445312 18.78125 30.332031 18.664062 C 30.324219 18.660156 30.320312 18.652344 30.316406 18.648438 C 30.199219 18.539062 30.046875 18.476562 29.886719 18.476562 L 16.386719 18.476562 C 16.378906 18.476562 16.371094 18.476562 16.367188 18.476562 C 16.035156 18.484375 15.765625 18.761719 15.765625 19.097656 L 15.765625 20.699219 C 15.765625 21.035156 16.035156 21.3125 16.371094 21.320312 Z M 16.402344 18.472656 Z M 30.683594 18.25 Z M 30.683594 18.25 Z M 30.683594 18.25 " fill-opacity="1" fill-rule="nonzero"/><path fill="#5b8d50" d="M 28.503906 30.976562 L 27.175781 30.976562 C 26.886719 30.976562 26.636719 30.78125 26.574219 30.496094 L 25.636719 26.214844 L 25.210938 24.28125 L 24.984375 23.238281 L 24.632812 21.652344 C 24.617188 21.570312 24.636719 21.484375 24.6875 21.421875 C 24.738281 21.359375 24.816406 21.320312 24.902344 21.320312 L 26.960938 21.320312 C 27.085938 21.320312 27.199219 21.410156 27.226562 21.535156 L 29.105469 30.234375 C 29.144531 30.414062 29.101562 30.601562 28.984375 30.746094 C 28.867188 30.894531 28.691406 30.976562 28.503906 30.976562 Z M 25.238281 21.863281 L 27.109375 30.378906 C 27.113281 30.410156 27.144531 30.433594 27.175781 30.433594 L 28.503906 30.433594 C 28.535156 30.433594 28.550781 30.417969 28.558594 30.40625 C 28.570312 30.394531 28.578125 30.375 28.574219 30.351562 L 26.738281 21.863281 Z M 25.238281 21.863281 " fill-opacity="1" fill-rule="nonzero"/><path fill="#5b8d50" d="M 19.035156 30.976562 L 17.707031 30.976562 C 17.519531 30.976562 17.347656 30.894531 17.230469 30.75 C 17.109375 30.605469 17.066406 30.417969 17.105469 30.234375 L 18.984375 21.535156 C 19.011719 21.410156 19.125 21.320312 19.25 21.320312 L 21.308594 21.320312 C 21.394531 21.320312 21.472656 21.359375 21.523438 21.421875 C 21.574219 21.484375 21.59375 21.570312 21.578125 21.652344 L 20.574219 26.214844 L 19.636719 30.496094 C 19.574219 30.78125 19.324219 30.976562 19.035156 30.976562 Z M 19.472656 21.863281 L 17.636719 30.347656 C 17.632812 30.375 17.644531 30.398438 17.652344 30.40625 C 17.660156 30.417969 17.679688 30.433594 17.707031 30.433594 L 19.035156 30.433594 C 19.066406 30.433594 19.097656 30.410156 19.101562 30.378906 L 20.742188 22.914062 L 20.972656 21.863281 Z M 19.472656 21.863281 " fill-opacity="1" fill-rule="nonzero"/><path fill="#5b8d50" d="M 4.039062 22.710938 C 3.886719 22.710938 3.765625 22.589844 3.765625 22.4375 L 3.765625 10.203125 C 3.765625 10.054688 3.886719 9.933594 4.039062 9.933594 C 4.1875 9.933594 4.308594 10.054688 4.308594 10.203125 L 4.308594 22.4375 C 4.308594 22.589844 4.1875 22.710938 4.039062 22.710938 Z M 4.039062 22.710938 " fill-opacity="1" fill-rule="nonzero"/><path fill="#5b8d50" d="M 23.136719 18.476562 C 22.984375 18.476562 22.863281 18.355469 22.863281 18.203125 L 22.863281 9.601562 C 22.863281 9.453125 22.984375 9.332031 23.136719 9.332031 C 23.285156 9.332031 23.40625 9.453125 23.40625 9.601562 L 23.40625 18.203125 C 23.40625 18.355469 23.285156 18.476562 23.136719 18.476562 Z M 23.136719 18.476562 " fill-opacity="1" fill-rule="nonzero"/><path fill="#5b8d50" d="M 30.597656 9.875 L 15.671875 9.875 C 14.441406 9.875 13.4375 8.871094 13.4375 7.640625 C 13.4375 7.226562 13.550781 6.824219 13.765625 6.472656 C 13.980469 6.125 14.285156 5.839844 14.65625 5.648438 L 22.117188 1.839844 C 22.753906 1.515625 23.515625 1.515625 24.152344 1.839844 L 31.617188 5.648438 C 32.367188 6.03125 32.832031 6.796875 32.832031 7.640625 C 32.832031 7.800781 32.816406 7.960938 32.785156 8.109375 C 32.566406 9.132812 31.648438 9.875 30.597656 9.875 Z M 23.136719 2.140625 C 22.871094 2.140625 22.605469 2.199219 22.367188 2.324219 L 14.902344 6.132812 C 14.625 6.277344 14.390625 6.492188 14.230469 6.757812 C 14.066406 7.023438 13.980469 7.328125 13.980469 7.640625 C 13.980469 8.574219 14.738281 9.332031 15.671875 9.332031 L 30.597656 9.332031 C 31.390625 9.332031 32.085938 8.769531 32.25 7.996094 C 32.277344 7.878906 32.289062 7.761719 32.289062 7.640625 C 32.289062 7 31.9375 6.425781 31.367188 6.132812 L 23.90625 2.324219 C 23.664062 2.199219 23.398438 2.140625 23.136719 2.140625 Z M 23.136719 2.140625 " fill-opacity="1" fill-rule="nonzero"/></svg>