<svg xmlns="http://www.w3.org/2000/svg" xmlns:xlink="http://www.w3.org/1999/xlink" width="45" zoomAndPan="magnify" viewBox="0 0 33.75 33.749999" height="45" preserveAspectRatio="xMidYMid meet" version="1.0"><defs><clipPath id="3b4cdd77e6"><path d="M 0.921875 7 L 32.933594 7 L 32.933594 33.5 L 0.921875 33.5 Z M 0.921875 7 " clip-rule="nonzero"/></clipPath></defs><g clip-path="url(#3b4cdd77e6)"><path fill="#f3a09e" d="M 2.507812 27.65625 C 2.507812 28.539062 2.5 29.351562 2.515625 30.167969 C 2.515625 30.242188 2.617188 30.351562 2.699219 30.390625 C 3.765625 30.941406 4.902344 31.332031 6.066406 31.636719 C 7.898438 32.128906 9.769531 32.417969 11.652344 32.582031 C 13.777344 32.773438 15.90625 32.839844 18.035156 32.726562 C 21.574219 32.527344 25.027344 31.9375 28.25 30.386719 C 29.09375 29.976562 29.871094 29.433594 30.675781 28.941406 C 30.742188 28.902344 30.808594 28.785156 30.808594 28.703125 C 30.804688 27.242188 30.78125 25.777344 30.769531 24.316406 C 30.769531 24.164062 30.734375 24.070312 30.585938 23.988281 C 30.230469 23.785156 30.027344 23.457031 29.863281 23.097656 C 29.566406 22.449219 29.503906 21.75 29.402344 21.0625 C 29.367188 20.816406 29.292969 20.570312 29.183594 20.347656 C 28.953125 19.863281 28.503906 19.796875 28.175781 20.210938 C 27.9375 20.515625 27.726562 20.871094 27.597656 21.238281 C 27.351562 21.941406 27.175781 22.660156 26.964844 23.375 C 26.714844 24.21875 26.332031 24.980469 25.644531 25.566406 C 24.632812 26.429688 22.488281 26.621094 21.472656 25.4375 C 21.152344 25.0625 20.910156 24.632812 20.648438 24.210938 C 20.40625 23.8125 20.175781 23.410156 19.785156 23.125 C 18.96875 22.511719 18.085938 22.503906 17.328125 23.191406 C 16.96875 23.519531 16.65625 23.914062 16.375 24.316406 C 15.738281 25.234375 15.027344 26.070312 14.0625 26.664062 C 12.414062 27.667969 10.78125 27.511719 9.238281 26.207031 C 8.359375 25.472656 7.640625 24.601562 7.066406 23.605469 C 6.734375 23.027344 6.269531 22.585938 5.636719 22.347656 C 4.984375 22.097656 4.523438 22.257812 4.148438 22.84375 C 3.945312 23.164062 3.761719 23.5 3.535156 23.804688 C 3.160156 24.316406 2.691406 24.667969 2.019531 24.640625 C 1.398438 24.621094 0.960938 24.261719 0.949219 23.640625 C 0.9375 23.089844 1.003906 22.539062 1.058594 21.988281 C 1.132812 21.144531 1.25 20.304688 1.296875 19.460938 C 1.335938 18.613281 1.351562 17.761719 1.34375 16.910156 C 1.335938 15.503906 1.949219 14.496094 3.207031 13.875 C 3.441406 13.761719 3.683594 13.664062 3.910156 13.535156 C 3.976562 13.496094 4.046875 13.378906 4.039062 13.3125 C 3.902344 12.011719 3.753906 10.71875 3.601562 9.417969 C 3.601562 9.398438 3.597656 9.382812 3.597656 9.363281 C 3.535156 8.847656 3.527344 8.539062 4.277344 8.738281 C 4.507812 8.800781 4.761719 8.792969 5 8.777344 C 5.351562 8.765625 5.460938 8.832031 5.496094 9.179688 C 5.5625 9.882812 5.609375 10.574219 5.671875 11.277344 C 5.710938 11.792969 5.761719 12.304688 5.808594 12.847656 C 6.292969 12.710938 6.742188 12.570312 7.195312 12.460938 C 7.800781 12.3125 8.40625 12.1875 9.019531 12.058594 C 9.089844 12.046875 9.15625 12.039062 9.222656 12.039062 C 9.414062 12.023438 9.550781 12.097656 9.578125 12.296875 C 9.605469 12.5 9.515625 12.628906 9.3125 12.679688 C 8.800781 12.78125 8.292969 12.867188 7.789062 12.992188 C 7.203125 13.132812 6.625 13.324219 6.046875 13.480469 C 5.898438 13.523438 5.863281 13.597656 5.875 13.738281 C 5.921875 14.238281 5.949219 14.738281 6.011719 15.238281 C 6.039062 15.46875 5.964844 15.632812 5.765625 15.734375 C 5.359375 15.957031 4.929688 15.9375 4.507812 15.808594 C 4.40625 15.773438 4.3125 15.578125 4.289062 15.441406 C 4.222656 15.03125 4.195312 14.617188 4.15625 14.203125 C 3.039062 14.378906 2.085938 15.460938 2.039062 16.613281 C 1.996094 17.667969 2.003906 18.726562 1.9375 19.777344 C 1.875 20.6875 1.738281 21.59375 1.648438 22.503906 C 1.617188 22.867188 1.589844 23.226562 1.617188 23.585938 C 1.636719 23.898438 1.800781 23.996094 2.113281 23.980469 C 2.445312 23.960938 2.71875 23.804688 2.902344 23.539062 C 3.167969 23.164062 3.398438 22.769531 3.65625 22.390625 C 4.101562 21.742188 4.699219 21.449219 5.488281 21.605469 C 6.304688 21.769531 6.925781 22.238281 7.40625 22.894531 C 7.773438 23.394531 8.082031 23.941406 8.457031 24.4375 C 8.933594 25.070312 9.503906 25.613281 10.15625 26.0625 C 11.21875 26.796875 12.328125 26.832031 13.464844 26.253906 C 14.390625 25.785156 15.0625 25.03125 15.660156 24.199219 C 15.976562 23.761719 16.273438 23.308594 16.648438 22.933594 C 17.996094 21.558594 19.847656 21.757812 20.914062 23.363281 C 21.132812 23.695312 21.34375 24.035156 21.519531 24.390625 C 22.46875 26.253906 24.972656 25.769531 25.761719 24.503906 C 26.136719 23.90625 26.332031 23.253906 26.515625 22.585938 C 26.699219 21.933594 26.898438 21.28125 27.148438 20.648438 C 27.277344 20.3125 27.488281 20 27.726562 19.734375 C 28.3125 19.066406 29.257812 19.171875 29.722656 19.933594 C 30.019531 20.421875 30.054688 20.972656 30.148438 21.519531 C 30.230469 21.980469 30.367188 22.4375 30.519531 22.886719 C 30.578125 23.0625 30.714844 23.238281 30.859375 23.367188 C 31.21875 23.695312 31.703125 23.527344 31.8125 23.050781 C 31.933594 22.476562 31.789062 21.933594 31.679688 21.382812 C 31.519531 20.570312 31.292969 19.769531 31.183594 18.945312 C 31.097656 18.273438 31.117188 17.585938 31.109375 16.902344 C 31.101562 16.296875 31.164062 15.691406 31.136719 15.085938 C 31.101562 14.257812 30.648438 13.65625 29.9375 13.269531 C 29.558594 13.058594 29.136719 12.929688 28.644531 12.734375 C 28.644531 13.046875 28.640625 13.285156 28.644531 13.515625 C 28.652344 13.746094 28.558594 13.910156 28.328125 13.9375 C 27.957031 13.976562 27.589844 14.027344 27.222656 14.011719 C 26.925781 14.003906 26.828125 13.839844 26.835938 13.542969 C 26.851562 13.160156 26.871094 12.785156 26.890625 12.359375 C 26.175781 12.269531 25.480469 12.179688 24.792969 12.105469 C 24.398438 12.066406 24.238281 11.96875 24.257812 11.726562 C 24.277344 11.488281 24.460938 11.390625 24.847656 11.441406 C 25.46875 11.515625 26.082031 11.597656 26.699219 11.675781 C 26.761719 11.683594 26.824219 11.683594 26.910156 11.683594 C 26.917969 11.574219 26.925781 11.472656 26.929688 11.378906 C 26.980469 10.050781 27.027344 8.730469 27.082031 7.402344 C 27.09375 7.03125 27.292969 6.933594 27.632812 7.078125 C 27.910156 7.191406 28.195312 7.289062 28.488281 7.355469 C 28.714844 7.410156 28.824219 7.511719 28.816406 7.746094 C 28.789062 8.847656 28.753906 9.941406 28.726562 11.042969 C 28.722656 11.390625 28.726562 11.730469 28.726562 12.085938 C 29.09375 12.214844 29.476562 12.324219 29.84375 12.472656 C 31.125 13.011719 31.835938 13.957031 31.832031 15.378906 C 31.824219 16.136719 31.777344 16.882812 31.761719 17.640625 C 31.734375 18.75 32 19.816406 32.261719 20.886719 C 32.417969 21.539062 32.558594 22.199219 32.511719 22.886719 C 32.464844 23.605469 32.179688 23.96875 31.464844 24.1875 C 31.464844 24.265625 31.464844 24.363281 31.464844 24.457031 C 31.476562 25.730469 31.492188 27.003906 31.511719 28.277344 C 31.511719 28.363281 31.558594 28.472656 31.621094 28.535156 C 31.804688 28.726562 31.824219 28.886719 31.613281 29.066406 C 31.285156 29.34375 30.945312 29.621094 30.59375 29.859375 C 28.855469 31.023438 26.945312 31.78125 24.945312 32.332031 C 23.074219 32.847656 21.167969 33.15625 19.226562 33.3125 C 16.902344 33.5 14.574219 33.476562 12.246094 33.296875 C 9.566406 33.09375 6.917969 32.699219 4.378906 31.792969 C 3.535156 31.496094 2.726562 31.09375 1.921875 30.703125 C 1.519531 30.515625 1.519531 30.351562 1.828125 30.023438 C 1.867188 29.984375 1.882812 29.902344 1.882812 29.839844 C 1.902344 29.023438 1.914062 28.214844 1.921875 27.398438 C 1.921875 27.316406 1.855469 27.214844 1.792969 27.144531 C 1.71875 27.0625 1.621094 27.003906 1.535156 26.929688 C 1.363281 26.792969 1.222656 26.628906 1.363281 26.398438 C 1.507812 26.164062 1.703125 26.214844 1.957031 26.382812 C 1.957031 26.015625 1.957031 25.691406 1.957031 25.371094 C 1.957031 25.28125 1.964844 25.199219 1.96875 25.109375 C 1.996094 24.90625 2.121094 24.796875 2.324219 24.820312 C 2.519531 24.839844 2.617188 24.953125 2.617188 25.152344 C 2.617188 25.65625 2.617188 26.160156 2.597656 26.65625 C 2.589844 26.839844 2.652344 26.933594 2.808594 27.023438 C 4.234375 27.894531 5.792969 28.453125 7.40625 28.867188 C 9.066406 29.296875 10.753906 29.5625 12.464844 29.710938 C 14.238281 29.867188 16.023438 29.949219 17.804688 29.859375 C 21.65625 29.65625 25.351562 28.847656 28.75 26.949219 C 29.128906 26.730469 29.496094 26.480469 29.863281 26.234375 C 30.117188 26.0625 30.308594 26.050781 30.4375 26.21875 C 30.570312 26.402344 30.519531 26.582031 30.253906 26.777344 C 29.0625 27.628906 27.761719 28.261719 26.402344 28.785156 C 24.351562 29.582031 22.230469 30.066406 20.050781 30.332031 C 17.703125 30.617188 15.347656 30.601562 13 30.417969 C 10.386719 30.222656 7.816406 29.8125 5.34375 28.910156 C 4.46875 28.589844 3.628906 28.144531 2.773438 27.757812 C 2.699219 27.75 2.644531 27.722656 2.507812 27.65625 Z M 4.277344 9.4375 C 4.332031 9.949219 4.378906 10.433594 4.433594 10.914062 C 4.582031 12.25 4.734375 13.578125 4.882812 14.910156 C 4.921875 15.265625 4.957031 15.296875 5.332031 15.175781 C 5.167969 13.277344 5.011719 11.378906 4.847656 9.464844 C 4.644531 9.460938 4.472656 9.445312 4.277344 9.4375 Z M 27.980469 13.34375 C 27.984375 13.175781 27.992188 13.019531 28 12.863281 C 28.039062 11.351562 28.082031 9.839844 28.121094 8.324219 C 28.136719 7.929688 28.109375 7.902344 27.695312 7.902344 C 27.625 9.722656 27.5625 11.554688 27.496094 13.40625 C 27.6875 13.386719 27.824219 13.367188 27.980469 13.34375 Z M 27.980469 13.34375 " fill-opacity="1" fill-rule="nonzero"/></g><path fill="#f3a09e" d="M 13.101562 19.121094 C 10.890625 19.121094 8.945312 19.027344 7.019531 18.699219 C 5.84375 18.503906 4.683594 18.222656 3.601562 17.699219 C 3.351562 17.578125 3.105469 17.414062 2.882812 17.25 C 2.71875 17.136719 2.703125 16.953125 2.828125 16.796875 C 2.949219 16.644531 3.113281 16.632812 3.269531 16.734375 C 4.316406 17.449219 5.515625 17.742188 6.734375 17.972656 C 9.402344 18.484375 12.101562 18.523438 14.804688 18.402344 C 16.152344 18.339844 17.5 18.257812 18.847656 18.121094 C 21.929688 17.808594 24.984375 17.320312 27.855469 16.09375 C 28.644531 15.761719 29.382812 15.285156 30.128906 14.863281 C 30.375 14.726562 30.550781 14.710938 30.675781 14.890625 C 30.789062 15.058594 30.734375 15.242188 30.503906 15.414062 C 29.257812 16.320312 27.855469 16.890625 26.402344 17.351562 C 24.453125 17.972656 22.453125 18.347656 20.425781 18.613281 C 17.90625 18.9375 15.375 19.089844 13.101562 19.121094 Z M 13.101562 19.121094 " fill-opacity="1" fill-rule="nonzero"/><path fill="#f3a09e" d="M 16.90625 12.019531 C 16.90625 12.386719 16.902344 12.710938 16.90625 13.039062 C 16.914062 13.25 16.832031 13.378906 16.648438 13.472656 C 16.269531 13.671875 15.871094 13.699219 15.464844 13.597656 C 15.253906 13.542969 15.1875 13.386719 15.1875 13.179688 C 15.1875 12.828125 15.1875 12.472656 15.1875 12.097656 C 14.683594 12.125 14.21875 12.148438 13.757812 12.175781 C 13.523438 12.1875 13.292969 12.214844 13.054688 12.234375 C 12.832031 12.257812 12.652344 12.132812 12.652344 11.9375 C 12.652344 11.726562 12.769531 11.597656 12.988281 11.582031 C 13.640625 11.535156 14.300781 11.492188 14.953125 11.445312 C 15.015625 11.441406 15.078125 11.433594 15.171875 11.417969 C 15.171875 11.316406 15.171875 11.222656 15.171875 11.121094 C 15.152344 9.5 15.132812 7.878906 15.117188 6.261719 C 15.109375 5.796875 15.273438 5.695312 15.710938 5.851562 C 15.925781 5.933594 16.160156 5.980469 16.390625 5.996094 C 16.730469 6.015625 16.839844 6.097656 16.839844 6.445312 C 16.859375 7.976562 16.875 9.507812 16.894531 11.042969 C 16.894531 11.140625 16.894531 11.234375 16.894531 11.304688 C 17.398438 11.304688 17.878906 11.304688 18.355469 11.304688 C 19.050781 11.304688 19.746094 11.296875 20.433594 11.304688 C 20.703125 11.304688 20.839844 11.417969 20.839844 11.628906 C 20.839844 11.839844 20.703125 11.949219 20.433594 11.949219 C 19.371094 11.964844 18.300781 11.984375 17.242188 11.996094 C 17.132812 12.003906 17.03125 12.011719 16.90625 12.019531 Z M 15.820312 12.976562 C 16.246094 12.996094 16.261719 12.984375 16.253906 12.644531 C 16.226562 10.726562 16.199219 8.804688 16.164062 6.886719 C 16.164062 6.8125 16.152344 6.738281 16.152344 6.664062 C 16.023438 6.640625 15.914062 6.621094 15.820312 6.609375 C 15.820312 8.730469 15.820312 10.839844 15.820312 12.976562 Z M 15.820312 12.976562 " fill-opacity="1" fill-rule="nonzero"/><path fill="#f3a09e" d="M 23.351562 11.9375 C 23.378906 13.285156 23.40625 14.636719 23.433594 15.984375 C 23.441406 16.320312 23.386719 16.421875 23.058594 16.46875 C 22.710938 16.515625 22.359375 16.535156 22.011719 16.503906 C 21.671875 16.46875 21.582031 16.320312 21.570312 15.972656 C 21.546875 15.257812 21.535156 14.535156 21.515625 13.820312 C 21.46875 11.902344 21.417969 9.984375 21.371094 8.0625 C 21.363281 7.738281 21.46875 7.640625 21.78125 7.585938 C 22.125 7.527344 22.460938 7.4375 22.800781 7.34375 C 22.992188 7.289062 23.175781 7.355469 23.234375 7.554688 C 23.261719 7.648438 23.269531 7.757812 23.269531 7.859375 C 23.269531 9.222656 23.269531 10.574219 23.269531 11.9375 C 23.296875 11.9375 23.324219 11.9375 23.351562 11.9375 Z M 22.773438 15.882812 C 22.71875 13.285156 22.664062 10.726562 22.609375 8.144531 C 22.390625 8.1875 22.214844 8.21875 22.046875 8.253906 C 22.113281 10.8125 22.175781 13.34375 22.242188 15.882812 C 22.425781 15.882812 22.574219 15.882812 22.773438 15.882812 Z M 22.773438 15.882812 " fill-opacity="1" fill-rule="nonzero"/><path fill="#f3a09e" d="M 10.164062 12.179688 C 10.117188 10.96875 10.0625 9.757812 10.015625 8.554688 C 10 8.207031 10.101562 8.089844 10.449219 8.105469 C 10.777344 8.117188 11.082031 8.078125 11.339844 7.832031 C 11.410156 7.765625 11.59375 7.722656 11.660156 7.773438 C 11.769531 7.839844 11.863281 7.988281 11.886719 8.113281 C 11.933594 8.464844 11.933594 8.820312 11.945312 9.171875 C 12.046875 11.296875 12.152344 13.425781 12.253906 15.550781 C 12.273438 15.945312 12.226562 16.066406 11.84375 16.148438 C 11.46875 16.230469 11.082031 16.242188 10.699219 16.265625 C 10.441406 16.277344 10.347656 16.113281 10.332031 15.863281 C 10.277344 14.636719 10.226562 13.40625 10.164062 12.179688 Z M 10.980469 15.617188 C 11.558594 15.679688 11.597656 15.625 11.570312 15.09375 C 11.484375 13.417969 11.410156 11.746094 11.328125 10.070312 C 11.308594 9.609375 11.28125 9.152344 11.253906 8.675781 C 11.042969 8.722656 10.871094 8.757812 10.679688 8.800781 C 10.78125 11.085938 10.878906 13.351562 10.980469 15.617188 Z M 10.980469 15.617188 " fill-opacity="1" fill-rule="nonzero"/><path fill="#f3a09e" d="M 12.117188 5.234375 C 12.109375 6.023438 11.960938 6.613281 11.53125 7.097656 C 11.164062 7.511719 10.789062 7.59375 10.273438 7.382812 C 9.476562 7.070312 9.035156 6.191406 9.164062 5.246094 C 9.246094 4.660156 9.460938 4.128906 9.789062 3.640625 C 9.953125 3.394531 10.117188 3.152344 10.292969 2.914062 C 10.648438 2.449219 10.648438 1.960938 10.429688 1.441406 C 10.402344 1.382812 10.367188 1.320312 10.347656 1.253906 C 10.292969 1.070312 10.339844 0.917969 10.515625 0.835938 C 10.6875 0.761719 10.871094 0.804688 10.933594 0.980469 C 11.054688 1.320312 11.191406 1.667969 11.226562 2.015625 C 11.28125 2.625 11.382812 3.21875 11.679688 3.769531 C 11.941406 4.289062 12.128906 4.8125 12.117188 5.234375 Z M 10.761719 3.402344 C 10.355469 3.96875 9.945312 4.5 9.84375 5.179688 C 9.769531 5.675781 9.78125 6.171875 10.171875 6.554688 C 10.59375 6.960938 10.953125 6.914062 11.21875 6.398438 C 11.542969 5.757812 11.523438 5.097656 11.253906 4.445312 C 11.109375 4.101562 10.9375 3.777344 10.761719 3.402344 Z M 10.761719 3.402344 " fill-opacity="1" fill-rule="nonzero"/><path fill="#f3a09e" d="M 22.324219 6.914062 C 21.441406 6.914062 20.757812 6.265625 20.621094 5.34375 C 20.546875 4.8125 20.636719 4.308594 20.785156 3.8125 C 21.003906 3.097656 21.242188 2.382812 21.472656 1.667969 C 21.535156 1.46875 21.644531 1.3125 21.882812 1.355469 C 22.09375 1.386719 22.132812 1.542969 22.152344 1.734375 C 22.214844 2.558594 22.550781 3.265625 23.085938 3.886719 C 23.433594 4.289062 23.664062 4.742188 23.726562 5.28125 C 23.816406 6.152344 23.234375 6.941406 22.324219 6.914062 Z M 21.691406 3.015625 C 21.554688 3.566406 21.378906 4.136719 21.269531 4.714844 C 21.195312 5.132812 21.28125 5.546875 21.554688 5.894531 C 21.820312 6.226562 22.324219 6.355469 22.679688 6.179688 C 22.996094 6.023438 23.15625 5.621094 23.039062 5.183594 C 22.976562 4.960938 22.890625 4.738281 22.765625 4.546875 C 22.425781 4.035156 22.058594 3.539062 21.691406 3.015625 Z M 21.691406 3.015625 " fill-opacity="1" fill-rule="nonzero"/><path fill="#f3a09e" d="M 14.289062 3.445312 C 14.34375 2.859375 14.492188 2.125 14.871094 1.449219 C 14.898438 1.394531 14.871094 1.304688 14.871094 1.238281 C 14.871094 0.933594 14.839844 0.621094 14.878906 0.320312 C 14.90625 0.0898438 15.105469 0 15.300781 0.0546875 C 15.484375 0.109375 15.558594 0.277344 15.5 0.511719 C 15.390625 0.917969 15.554688 1.257812 15.792969 1.566406 C 16.042969 1.890625 16.347656 2.183594 16.582031 2.523438 C 16.824219 2.886719 17.058594 3.265625 17.207031 3.675781 C 17.613281 4.789062 16.65625 5.59375 15.648438 5.421875 C 14.714844 5.265625 14.28125 4.683594 14.289062 3.445312 Z M 15.308594 2.042969 C 15.0625 2.75 14.816406 3.421875 15.007812 4.15625 C 15.132812 4.632812 15.675781 4.914062 16.1875 4.75 C 16.628906 4.605469 16.75 4.238281 16.527344 3.707031 C 16.253906 3.070312 15.792969 2.574219 15.308594 2.042969 Z M 15.308594 2.042969 " fill-opacity="1" fill-rule="nonzero"/><path fill="#f3a09e" d="M 27.890625 6.742188 C 27.570312 6.730469 27.222656 6.628906 26.910156 6.402344 C 26.351562 6.003906 26.292969 5.429688 26.429688 4.824219 C 26.488281 4.539062 26.632812 4.273438 26.71875 3.996094 C 26.824219 3.675781 26.917969 3.355469 27 3.035156 C 27.019531 2.96875 26.964844 2.886719 26.957031 2.808594 C 26.929688 2.441406 26.898438 2.074219 26.902344 1.707031 C 26.902344 1.503906 27.0625 1.367188 27.277344 1.402344 C 27.488281 1.4375 27.589844 1.59375 27.542969 1.804688 C 27.414062 2.4375 27.660156 2.90625 28.128906 3.3125 C 28.539062 3.675781 28.898438 4.089844 29.128906 4.59375 C 29.320312 5.015625 29.359375 5.4375 29.199219 5.878906 C 28.992188 6.425781 28.53125 6.742188 27.890625 6.742188 Z M 27.640625 3.707031 C 27.605469 3.714844 27.570312 3.722656 27.535156 3.730469 C 27.375 4.179688 27.195312 4.628906 27.054688 5.082031 C 26.980469 5.320312 27.011719 5.566406 27.191406 5.765625 C 27.449219 6.050781 28.019531 6.164062 28.3125 5.988281 C 28.613281 5.8125 28.722656 5.347656 28.558594 4.941406 C 28.523438 4.859375 28.496094 4.777344 28.441406 4.710938 C 28.175781 4.375 27.90625 4.042969 27.640625 3.707031 Z M 27.640625 3.707031 " fill-opacity="1" fill-rule="nonzero"/><path fill="#f3a09e" d="M 5.707031 6.820312 C 5.710938 7.539062 5.203125 8.144531 4.496094 8.246094 C 4.078125 8.300781 3.753906 8.105469 3.496094 7.804688 C 3.003906 7.234375 2.9375 6.582031 3.140625 5.878906 C 3.230469 5.582031 3.34375 5.292969 3.441406 4.996094 C 3.46875 4.914062 3.460938 4.8125 3.433594 4.730469 C 3.148438 4.027344 3.304688 3.355469 3.582031 2.695312 C 3.65625 2.523438 3.8125 2.457031 3.992188 2.539062 C 4.175781 2.621094 4.222656 2.757812 4.175781 2.960938 C 4.085938 3.328125 3.984375 3.695312 3.964844 4.070312 C 3.949219 4.246094 4.066406 4.472656 4.1875 4.613281 C 4.351562 4.8125 4.578125 4.953125 4.773438 5.125 C 5.398438 5.632812 5.699219 6.1875 5.707031 6.820312 Z M 4.003906 5.355469 C 3.902344 5.703125 3.792969 6.007812 3.71875 6.320312 C 3.628906 6.667969 3.71875 6.988281 3.917969 7.28125 C 4.039062 7.453125 4.183594 7.613281 4.417969 7.582031 C 4.679688 7.546875 4.890625 7.410156 4.964844 7.164062 C 5.027344 6.988281 5.039062 6.769531 5.003906 6.585938 C 4.910156 6.015625 4.453125 5.722656 4.003906 5.355469 Z M 4.003906 5.355469 " fill-opacity="1" fill-rule="nonzero"/></svg>