<svg xmlns="http://www.w3.org/2000/svg" xmlns:xlink="http://www.w3.org/1999/xlink" width="45" zoomAndPan="magnify" viewBox="0 0 33.75 33.749999" height="45" preserveAspectRatio="xMidYMid meet" version="1.0"><defs><clipPath id="8bd815d69a"><path d="M 0 0 L 33.5 0 L 33.5 33.5 L 0 33.5 Z M 0 0 " clip-rule="nonzero"/></clipPath></defs><g clip-path="url(#8bd815d69a)"><path fill="#9a4d01" d="M 23.183594 11.457031 C 22.679688 11.289062 22.328125 11.0625 22.136719 10.777344 C 21.839844 10.34375 21.941406 9.644531 22.351562 9.3125 C 22.535156 9.164062 22.78125 9.089844 23.027344 9.089844 C 23.328125 9.089844 23.628906 9.199219 23.828125 9.40625 C 24.34375 9.941406 24.417969 10.859375 24.300781 11.675781 C 23.921875 11.648438 23.542969 11.578125 23.183594 11.457031 Z M 21.234375 16.210938 C 22.835938 15.792969 24.160156 14.800781 24.863281 13.488281 C 24.96875 13.289062 25.074219 13.035156 25.164062 12.746094 C 26.101562 12.660156 27.015625 12.347656 27.8125 11.824219 C 29.265625 10.863281 30.222656 9.253906 30.367188 7.515625 L 29.292969 7.425781 C 29.179688 8.816406 28.382812 10.15625 27.21875 10.925781 C 26.671875 11.285156 26.042969 11.519531 25.390625 11.625 C 25.503906 10.59375 25.351562 9.4375 24.605469 8.660156 C 23.859375 7.878906 22.515625 7.792969 21.671875 8.476562 C 20.832031 9.15625 20.636719 10.488281 21.242188 11.382812 C 21.570312 11.867188 22.109375 12.234375 22.84375 12.480469 C 23.230469 12.605469 23.625 12.691406 24.027344 12.734375 C 23.988281 12.824219 23.953125 12.90625 23.914062 12.980469 C 23.359375 14.011719 22.257812 14.832031 20.964844 15.167969 C 19.800781 15.472656 18.492188 15.429688 17.070312 15.042969 L 16.785156 16.082031 C 17.675781 16.324219 18.535156 16.445312 19.351562 16.445312 C 20.007812 16.445312 20.636719 16.367188 21.234375 16.210938 Z M 12.53125 7.84375 L 13.652344 7.84375 L 13.652344 9.957031 L 12.53125 9.957031 Z M 13.628906 5.789062 C 13.144531 5.789062 12.753906 5.398438 12.753906 4.914062 C 12.753906 4.433594 13.144531 4.042969 13.628906 4.042969 C 14.113281 4.042969 14.503906 4.433594 14.503906 4.914062 C 14.503906 5.398438 14.113281 5.789062 13.628906 5.789062 Z M 19.230469 11.996094 C 19.714844 11.996094 20.105469 12.386719 20.105469 12.871094 C 20.105469 13.355469 19.714844 13.746094 19.230469 13.746094 C 18.75 13.746094 18.355469 13.355469 18.355469 12.871094 C 18.355469 12.386719 18.75 11.996094 19.230469 11.996094 Z M 24.804688 20.632812 C 24.804688 21.113281 24.414062 21.503906 23.929688 21.503906 C 23.449219 21.503906 23.054688 21.113281 23.054688 20.632812 C 23.054688 20.148438 23.449219 19.757812 23.929688 19.757812 C 24.414062 19.757812 24.804688 20.148438 24.804688 20.632812 Z M 26.289062 14.582031 L 28.636719 14.582031 L 28.636719 15.714844 L 26.289062 15.714844 Z M 14.433594 13.578125 L 14.046875 12.574219 C 15.039062 12.195312 16.035156 11.753906 16.34375 10.917969 C 16.617188 10.183594 16.285156 9.332031 15.933594 8.433594 C 15.539062 7.421875 15.089844 6.273438 15.535156 5.148438 C 16.039062 3.871094 17.394531 3.285156 18.386719 2.859375 C 19.839844 2.234375 20.386719 1.425781 20.207031 0.15625 L 21.273438 0.0078125 C 21.519531 1.773438 20.714844 3.027344 18.8125 3.847656 C 17.753906 4.304688 16.851562 4.746094 16.535156 5.542969 C 16.246094 6.277344 16.582031 7.132812 16.933594 8.039062 C 17.324219 9.039062 17.769531 10.171875 17.355469 11.292969 C 16.886719 12.550781 15.601562 13.132812 14.433594 13.578125 Z M 28.121094 20.277344 C 28.074219 20.578125 27.894531 20.855469 27.644531 21 C 27.503906 21.078125 27.28125 21.152344 27.015625 21.046875 C 26.671875 20.914062 26.628906 20.523438 26.628906 20.363281 C 26.621094 19.898438 26.882812 19.316406 27.488281 19.058594 C 27.539062 19.035156 27.59375 19.011719 27.652344 18.992188 C 28.179688 19.46875 28.152344 20.058594 28.121094 20.277344 Z M 33.644531 18.738281 C 31.339844 17.210938 29.023438 17.5 27.839844 17.808594 C 27.613281 17.679688 27.355469 17.570312 27.058594 17.476562 C 24.722656 16.761719 22.332031 17.40625 20.5 19.242188 L 21.265625 20.003906 C 22.730469 18.53125 24.613281 17.96875 26.464844 18.429688 C 25.828125 18.953125 25.542969 19.730469 25.550781 20.378906 C 25.5625 21.152344 25.972656 21.792969 26.621094 22.050781 C 26.835938 22.136719 27.0625 22.179688 27.285156 22.179688 C 27.59375 22.179688 27.898438 22.097656 28.183594 21.933594 C 28.71875 21.625 29.09375 21.0625 29.183594 20.433594 C 29.265625 19.902344 29.175781 19.265625 28.808594 18.707031 C 29.996094 18.539062 31.574219 18.660156 33.046875 19.636719 Z M 4.425781 24.808594 L 13.164062 27.015625 L 7.332031 29.574219 L 2.835938 28.4375 Z M 6.398438 20.3125 L 20.390625 23.84375 L 14.558594 26.402344 L 4.808594 23.941406 Z M 8.371094 15.816406 L 15.457031 17.605469 L 20.847656 22.996094 L 6.78125 19.445312 Z M 14.167969 16.3125 L 8.753906 14.949219 L 9.988281 12.136719 Z M 1.1875 32.265625 C 1.179688 32.265625 1.167969 32.253906 1.167969 32.234375 L 2.453125 29.304688 L 5.9375 30.183594 L 1.199219 32.265625 Z M 23.175781 23.796875 L 9.632812 10.257812 L 0.183594 31.804688 C 0 32.21875 0.0898438 32.699219 0.414062 33.019531 C 0.625 33.230469 0.902344 33.34375 1.1875 33.34375 C 1.335938 33.34375 1.488281 33.3125 1.628906 33.25 L 23.175781 23.796875 " fill-opacity="1" fill-rule="nonzero"/></g></svg>