<svg xmlns="http://www.w3.org/2000/svg" xmlns:xlink="http://www.w3.org/1999/xlink" width="45" zoomAndPan="magnify" viewBox="0 0 33.75 33.749999" height="45" preserveAspectRatio="xMidYMid meet" version="1.0"><defs><clipPath id="a09d199f4a"><path d="M 0 0 L 33.5 0 L 33.5 33.5 L 0 33.5 Z M 0 0 " clip-rule="nonzero"/></clipPath></defs><g clip-path="url(#a09d199f4a)"><path fill="#5b8d50" d="M 30.527344 24.636719 C 30.402344 24.5625 30.273438 24.492188 30.144531 24.417969 C 34.453125 21.109375 34.539062 14.195312 30.367188 10.796875 C 25.824219 6.910156 18.578125 8.820312 16.535156 14.421875 C 14.136719 13.058594 10.964844 13.476562 8.992188 15.417969 C 8.925781 15.070312 8.867188 14.722656 8.804688 14.371094 C 13.695312 12.449219 14.117188 5.34375 10.171875 2.289062 C 7.460938 0.0429688 3.4375 0.761719 1.679688 3.808594 C -1.046875 8.164062 2.046875 14.78125 7.121094 14.679688 L 7.609375 17.421875 C 6.773438 19.304688 6.980469 21.507812 8.015625 23.261719 C 2.769531 21.875 0.0546875 29.007812 4.886719 31.46875 C 8.535156 33.203125 12.449219 29.414062 10.804688 25.71875 C 11.566406 26.070312 12.402344 26.265625 13.265625 26.28125 C 12.460938 27.078125 11.367188 27.953125 11.605469 29.226562 C 11.703125 29.867188 12.082031 30.425781 12.640625 30.761719 C 13.589844 31.328125 14.574219 31.808594 15.546875 32.195312 C 17.742188 33.0625 20.125 33.5 22.414062 33.144531 C 24.574219 32.84375 26.886719 31.660156 28.683594 30.183594 C 29.5 29.527344 30.292969 28.777344 31.03125 27.945312 C 31.941406 26.984375 31.6875 25.289062 30.527344 24.636719 Z M 32.808594 18.1875 C 32.488281 20.230469 31.722656 22.121094 30.148438 23.519531 C 28.53125 22.0625 27.578125 20.023438 27.488281 17.851562 C 27.488281 17.851562 32.808594 17.851562 32.808594 17.851562 C 32.84375 17.851562 32.835938 17.980469 32.808594 18.1875 Z M 30.148438 11.511719 C 31.757812 12.949219 32.71875 15.03125 32.808594 17.179688 L 27.488281 17.179688 C 27.574219 15.007812 28.53125 12.96875 30.148438 11.511719 Z M 25.0625 9.4375 C 26.710938 9.507812 28.304688 10.078125 29.617188 11.082031 C 27.902344 12.660156 26.898438 14.851562 26.808594 17.179688 L 25.0625 17.179688 Z M 25.0625 17.851562 L 26.808594 17.851562 C 26.898438 20.183594 27.90625 22.375 29.625 23.957031 C 29.578125 23.988281 29.53125 24.019531 29.488281 24.058594 C 28.085938 23.339844 26.601562 22.761719 25.0625 22.429688 Z M 24.386719 9.4375 L 24.386719 17.179688 L 22.636719 17.179688 C 22.546875 14.847656 21.546875 12.660156 19.832031 11.074219 C 21.140625 10.078125 22.734375 9.507812 24.386719 9.4375 Z M 19.632812 18.71875 C 19.574219 18.425781 19.496094 18.136719 19.398438 17.851562 C 19.398438 17.851562 21.964844 17.851562 21.964844 17.851562 C 22.125 17.851562 21.46875 20.359375 21.378906 20.570312 C 21.101562 21.167969 20.820312 21.886719 20.332031 22.335938 C 19.976562 22.519531 19.542969 22.484375 19.167969 22.621094 C 19.714844 21.417969 19.886719 20.03125 19.632812 18.71875 Z M 22.636719 17.851562 L 24.394531 17.851562 L 24.394531 22.300781 C 23.371094 22.136719 22.335938 22.085938 21.308594 22.183594 C 22.125 20.886719 22.582031 19.40625 22.636719 17.851562 Z M 17.273438 14.300781 C 17.78125 13.257812 18.4375 12.28125 19.304688 11.511719 C 20.917969 12.96875 21.867188 15.007812 21.957031 17.179688 C 21.957031 17.179688 19.109375 17.179688 19.109375 17.179688 C 19.074219 17.179688 18.550781 16.238281 18.496094 16.15625 C 18.101562 15.636719 17.625 15.171875 17.101562 14.789062 C 17.066406 14.761719 17.152344 14.554688 17.273438 14.300781 Z M 18.910156 18.609375 L 17.753906 17.941406 L 17.753906 16.59375 L 17.910156 16.503906 C 18.371094 17.09375 18.726562 17.867188 18.910156 18.609375 Z M 12.25 14.402344 C 12.890625 14.265625 13.558594 14.242188 14.207031 14.339844 C 14.554688 14.390625 14.542969 14.375 14.582031 14.683594 C 14.585938 14.730469 14.621094 15.097656 14.582031 15.121094 L 13.417969 15.796875 L 12.253906 15.121094 L 12.253906 14.402344 Z M 8.921875 16.511719 C 8.933594 16.496094 8.945312 16.476562 8.953125 16.464844 L 9.171875 16.59375 L 9.171875 17.941406 L 8.007812 18.617188 L 7.925781 18.566406 C 8.109375 17.820312 8.453125 17.121094 8.921875 16.511719 Z M 1.453125 8.765625 C 0.761719 5.453125 3.003906 1.597656 6.515625 1.640625 C 9.320312 1.636719 11.632812 4.109375 12.082031 6.878906 C 13.21875 15.039062 3.203125 16.820312 1.453125 8.765625 Z M 8.148438 14.5625 C 8.226562 15.058594 8.347656 15.550781 8.40625 16.054688 C 8.328125 16.203125 8.214844 16.324219 8.125 16.464844 C 8.015625 15.855469 7.90625 15.238281 7.800781 14.628906 C 7.796875 14.621094 8.125 14.570312 8.148438 14.5625 Z M 3.246094 28.710938 C 2.550781 26.835938 3.636719 24.582031 5.546875 23.964844 C 6.28125 25.847656 5.195312 28.140625 3.273438 28.769531 C 3.265625 28.75 3.253906 28.730469 3.246094 28.710938 Z M 7.339844 31.167969 C 5.863281 31.410156 4.308594 30.671875 3.5625 29.378906 C 5.765625 28.628906 7.011719 25.988281 6.203125 23.804688 C 7.671875 23.539062 9.230469 24.304688 9.980469 25.589844 C 7.769531 26.335938 6.515625 28.988281 7.339844 31.167969 Z M 10.476562 27.800781 C 10.4375 28.222656 10.328125 28.632812 10.152344 29.027344 C 9.878906 29.644531 8.925781 31.03125 8.125 30.960938 C 7.765625 30.929688 7.757812 29.992188 7.765625 29.65625 C 7.777344 28.128906 8.816406 26.679688 10.269531 26.199219 C 10.460938 26.699219 10.519531 27.253906 10.476562 27.800781 Z M 10.679688 24.734375 L 10.53125 24.816406 C 9.832031 24.40625 9.210938 23.828125 8.746094 23.152344 L 9.511719 22.710938 L 10.679688 23.386719 Z M 11.253906 25.179688 C 11.324219 25.113281 11.363281 25.023438 11.363281 24.933594 L 11.363281 23.199219 C 11.363281 23.078125 11.296875 22.96875 11.195312 22.902344 C 10.746094 22.644531 10.332031 22.253906 9.820312 22.09375 C 9.273438 21.921875 8.863281 22.320312 8.40625 22.582031 C 8.125 22.054688 7.9375 21.484375 7.835938 20.890625 C 7.800781 20.691406 7.835938 19.292969 7.800781 19.273438 C 8.160156 19.480469 8.765625 19.027344 9.074219 18.855469 C 9.453125 18.644531 9.84375 18.355469 9.851562 17.878906 C 9.859375 17.382812 9.851562 16.890625 9.851562 16.402344 C 9.871094 16.164062 9.574219 16.054688 9.410156 15.949219 C 10.011719 15.335938 10.765625 14.863281 11.574219 14.589844 L 11.574219 15.316406 C 11.574219 15.4375 11.636719 15.546875 11.742188 15.609375 C 11.804688 15.628906 13.386719 16.605469 13.410156 16.523438 C 13.429688 16.613281 15.019531 15.628906 15.082031 15.609375 C 15.183594 15.550781 15.25 15.4375 15.25 15.316406 L 15.25 14.589844 C 16.078125 14.871094 16.835938 15.359375 17.453125 15.984375 C 17.292969 16.074219 17.054688 16.175781 17.066406 16.402344 C 17.066406 16.402344 17.066406 18.136719 17.066406 18.136719 C 17.066406 18.257812 17.132812 18.367188 17.234375 18.429688 L 18.738281 19.296875 C 18.828125 19.351562 18.9375 19.355469 19.027344 19.316406 C 19 19.324219 18.984375 20.507812 18.96875 20.609375 C 18.949219 20.878906 18.570312 22.613281 18.429688 22.535156 C 18.429688 22.535156 17.570312 22.035156 17.570312 22.035156 C 17.464844 21.976562 17.335938 21.976562 17.226562 22.035156 L 15.742188 22.902344 C 15.640625 22.960938 15.578125 23.078125 15.578125 23.191406 C 15.578125 23.191406 15.578125 24.394531 15.578125 24.394531 C 15.042969 24.761719 14.53125 25.152344 14.042969 25.570312 C 13.109375 25.683594 12.105469 25.539062 11.253906 25.179688 Z M 18 23.050781 C 17.734375 23.191406 16.355469 23.699219 16.25 23.957031 L 16.25 23.386719 L 17.414062 22.710938 Z M 12.980469 30.175781 C 12.183594 29.734375 12.003906 28.5625 12.632812 27.902344 C 13.199219 27.265625 13.808594 26.667969 14.445312 26.121094 L 15.242188 31.332031 C 14.484375 31.003906 13.726562 30.621094 12.980469 30.175781 Z M 16.824219 31.925781 C 16.535156 31.835938 16.25 31.730469 15.96875 31.621094 L 15.050781 25.621094 C 15.382812 25.359375 15.71875 25.113281 16.070312 24.882812 L 17.164062 32.019531 C 17.046875 31.988281 16.9375 31.964844 16.824219 31.925781 Z M 22.3125 32.476562 C 20.921875 32.6875 19.433594 32.597656 17.878906 32.226562 C 17.878906 32.226562 16.695312 24.492188 16.695312 24.492188 C 16.675781 24.304688 18.261719 23.6875 18.460938 23.609375 C 20.621094 22.71875 23.03125 22.609375 25.292969 23.179688 L 26.472656 30.914062 C 25.097656 31.730469 23.699219 32.265625 22.3125 32.476562 Z M 27.515625 30.222656 C 27.375 30.324219 27.234375 30.414062 27.085938 30.511719 L 25.992188 23.371094 C 26.398438 23.480469 26.789062 23.621094 27.1875 23.769531 L 28.105469 29.773438 C 27.914062 29.925781 27.714844 30.074219 27.515625 30.222656 Z M 30.527344 27.496094 C 29.949219 28.140625 29.339844 28.730469 28.71875 29.277344 L 27.921875 24.058594 C 28.683594 24.40625 29.488281 24.734375 30.175781 25.222656 C 30.875 25.789062 31.230469 26.71875 30.527344 27.496094 Z M 25.171875 26.808594 C 25.605469 26.746094 25.703125 27.40625 25.273438 27.476562 C 25.273438 27.476562 24.757812 27.554688 24.757812 27.554688 L 24.847656 28.132812 C 24.875 28.320312 24.753906 28.492188 24.566406 28.519531 C 24.386719 28.542969 24.207031 28.421875 24.179688 28.238281 C 24.179688 28.238281 24.089844 27.65625 24.089844 27.65625 L 23.363281 27.765625 L 23.453125 28.34375 C 23.480469 28.53125 23.359375 28.707031 23.171875 28.730469 C 22.992188 28.757812 22.8125 28.632812 22.785156 28.449219 C 22.785156 28.449219 22.695312 27.871094 22.695312 27.871094 L 21.96875 27.980469 L 22.058594 28.558594 C 22.085938 28.742188 21.964844 28.917969 21.777344 28.941406 C 21.597656 28.96875 21.417969 28.847656 21.390625 28.660156 C 21.390625 28.660156 21.300781 28.082031 21.300781 28.082031 L 20.574219 28.191406 L 20.664062 28.769531 C 20.691406 28.957031 20.570312 29.128906 20.382812 29.15625 C 20.203125 29.179688 20.023438 29.058594 19.996094 28.871094 C 19.996094 28.871094 19.90625 28.292969 19.90625 28.292969 L 19.183594 28.402344 L 19.273438 28.980469 C 19.296875 29.167969 19.175781 29.339844 18.988281 29.367188 C 18.808594 29.394531 18.628906 29.269531 18.601562 29.085938 C 18.601562 29.085938 18.511719 28.507812 18.511719 28.507812 C 18.21875 28.53125 17.703125 28.75 17.613281 28.300781 C 17.589844 28.113281 17.710938 27.941406 17.898438 27.914062 L 18.410156 27.839844 L 18.320312 27.257812 C 18.296875 27.074219 18.417969 26.898438 18.601562 26.875 C 18.789062 26.847656 18.964844 26.96875 18.988281 27.15625 L 19.078125 27.734375 L 19.804688 27.625 L 19.714844 27.046875 C 19.6875 26.863281 19.8125 26.6875 19.996094 26.664062 C 20.183594 26.628906 20.359375 26.757812 20.382812 26.945312 L 20.472656 27.523438 L 21.199219 27.414062 L 21.109375 26.835938 C 21.082031 26.648438 21.207031 26.476562 21.390625 26.449219 C 21.578125 26.417969 21.75 26.546875 21.777344 26.734375 L 21.867188 27.3125 L 22.59375 27.203125 L 22.503906 26.625 C 22.476562 26.4375 22.601562 26.265625 22.785156 26.238281 C 22.972656 26.210938 23.144531 26.335938 23.171875 26.519531 L 23.261719 27.097656 L 23.988281 26.988281 L 23.898438 26.410156 C 23.871094 26.226562 23.996094 26.050781 24.179688 26.027344 C 24.367188 26 24.539062 26.121094 24.566406 26.308594 L 24.65625 26.886719 Z M 15.089844 21.105469 C 15.191406 21.046875 15.253906 20.929688 15.253906 20.808594 L 15.253906 19.074219 C 15.253906 18.953125 15.191406 18.84375 15.089844 18.777344 L 13.585938 17.910156 C 13.480469 17.851562 13.355469 17.851562 13.246094 17.910156 L 11.742188 18.777344 C 11.636719 18.835938 11.574219 18.953125 11.574219 19.074219 L 11.574219 20.808594 C 11.574219 20.929688 11.636719 21.039062 11.742188 21.105469 C 11.804688 21.125 13.390625 22.105469 13.410156 22.015625 C 13.4375 22.113281 15.03125 21.125 15.089844 21.105469 Z M 12.25 20.621094 L 12.25 19.273438 L 13.417969 18.597656 L 14.582031 19.273438 L 14.582031 20.621094 L 13.417969 21.296875 Z M 8.964844 13.136719 C 12.691406 11.332031 12.800781 5.59375 9.632812 3.164062 C 5.539062 0.00390625 0.8125 4.019531 1.722656 8.722656 C 2.210938 12.03125 5.792969 14.738281 8.964844 13.136719 Z M 10.859375 10.085938 L 10.847656 10.085938 L 10.585938 8.59375 L 11.226562 8.476562 C 11.183594 9.050781 11.058594 9.589844 10.859375 10.085938 Z M 11.148438 7.046875 C 11.195312 7.296875 11.214844 7.546875 11.226562 7.796875 L 10.460938 7.933594 L 10.199219 6.449219 L 10.964844 6.3125 C 11.039062 6.550781 11.105469 6.792969 11.148438 7.046875 Z M 9.832031 4.289062 C 10.191406 4.695312 10.496094 5.15625 10.71875 5.671875 L 10.078125 5.785156 L 9.8125 4.296875 Z M 9.800781 8.054688 L 8.308594 8.316406 L 8.046875 6.832031 L 9.539062 6.570312 Z M 9.414062 5.902344 L 7.925781 6.164062 L 7.660156 4.675781 L 9.152344 4.410156 Z M 8.996094 3.53125 L 9.035156 3.742188 L 7.546875 4.011719 L 7.332031 2.804688 C 7.910156 2.914062 8.476562 3.164062 8.996094 3.53125 Z M 7.648438 8.433594 L 6.15625 8.695312 L 5.894531 7.210938 L 7.382812 6.949219 Z M 7 4.796875 L 7.261719 6.285156 L 5.773438 6.550781 L 5.507812 5.058594 Z M 5.875 2.777344 C 6.125 2.734375 6.382812 2.707031 6.632812 2.722656 L 6.882812 4.128906 L 5.394531 4.390625 L 5.140625 2.992188 C 5.375 2.902344 5.617188 2.824219 5.875 2.777344 Z M 5.109375 6.667969 L 3.621094 6.929688 L 3.355469 5.4375 L 4.839844 5.175781 Z M 4.511719 3.304688 L 4.722656 4.515625 L 3.238281 4.777344 L 3.203125 4.566406 C 3.5625 4.039062 4.003906 3.613281 4.511719 3.304688 Z M 2.675781 5.5625 L 2.695312 5.554688 L 2.957031 7.046875 L 2.316406 7.160156 C 2.351562 6.609375 2.476562 6.070312 2.675781 5.5625 Z M 2.386719 8.601562 C 2.339844 8.351562 2.316406 8.097656 2.308594 7.847656 L 3.074219 7.714844 L 3.335938 9.199219 L 2.570312 9.332031 C 2.5 9.09375 2.429688 8.851562 2.386719 8.601562 Z M 3.703125 11.355469 C 3.34375 10.953125 3.042969 10.488281 2.816406 9.976562 L 3.457031 9.859375 L 3.722656 11.351562 Z M 4.003906 9.082031 L 3.742188 7.597656 L 5.226562 7.335938 L 5.488281 8.820312 Z M 4.121094 9.742188 L 5.605469 9.480469 L 5.867188 10.972656 L 4.382812 11.234375 Z M 4.542969 12.109375 L 4.507812 11.898438 L 5.992188 11.632812 L 6.203125 12.839844 C 5.625 12.726562 5.058594 12.480469 4.542969 12.109375 Z M 6.273438 9.363281 L 7.765625 9.101562 L 8.027344 10.59375 L 6.535156 10.855469 Z M 7.667969 12.867188 C 7.417969 12.910156 7.160156 12.925781 6.910156 12.925781 L 6.660156 11.523438 L 8.148438 11.261719 L 8.398438 12.660156 C 8.160156 12.746094 7.917969 12.820312 7.667969 12.867188 Z M 8.425781 8.980469 L 9.917969 8.714844 L 10.179688 10.207031 L 8.6875 10.46875 Z M 10.300781 10.867188 L 10.339844 11.074219 C 9.988281 11.589844 9.542969 12.023438 9.03125 12.339844 L 8.816406 11.132812 Z M 10.300781 10.867188 " fill-opacity="1" fill-rule="nonzero"/></g></svg>