<svg xmlns="http://www.w3.org/2000/svg" xmlns:xlink="http://www.w3.org/1999/xlink" width="45" zoomAndPan="magnify" viewBox="0 0 33.75 33.749999" height="45" preserveAspectRatio="xMidYMid meet" version="1.0"><defs><clipPath id="e3ae3c528b"><path d="M 13 25 L 23 25 L 23 33.5 L 13 33.5 Z M 13 25 " clip-rule="nonzero"/></clipPath><clipPath id="89db3358d7"><path d="M 28 18 L 32.636719 18 L 32.636719 21 L 28 21 Z M 28 18 " clip-rule="nonzero"/></clipPath><clipPath id="26defad4b8"><path d="M 28 8 L 32.636719 8 L 32.636719 11 L 28 11 Z M 28 8 " clip-rule="nonzero"/></clipPath><clipPath id="5451b89a3b"><path d="M 0.621094 12 L 6 12 L 6 15 L 0.621094 15 Z M 0.621094 12 " clip-rule="nonzero"/></clipPath></defs><g clip-path="url(#e3ae3c528b)"><path fill="#fad26c" d="M 18.308594 33.5 C 17.460938 33.5 15.84375 33.390625 14.902344 32.949219 C 14.332031 32.679688 14.042969 31.207031 13.832031 27.511719 C 13.820312 27.246094 13.90625 27.007812 14.089844 26.804688 C 14.558594 26.292969 15.621094 26.042969 17.648438 25.972656 C 19.667969 25.902344 22.125 26.074219 22.371094 27.28125 C 22.503906 27.933594 22.246094 30 21.941406 32.238281 L 21.894531 32.601562 C 21.847656 32.945312 21.566406 33.292969 18.710938 33.492188 C 18.613281 33.496094 18.476562 33.5 18.308594 33.5 Z M 18.367188 26.53125 C 18.148438 26.53125 17.914062 26.535156 17.671875 26.542969 C 17.015625 26.566406 15.019531 26.632812 14.511719 27.1875 C 14.433594 27.277344 14.398438 27.367188 14.40625 27.476562 C 14.636719 31.519531 14.972656 32.316406 15.152344 32.429688 C 16.117188 32.882812 18.035156 32.960938 18.671875 32.917969 C 20.777344 32.773438 21.242188 32.542969 21.332031 32.480469 L 21.378906 32.160156 C 21.574219 30.707031 21.9375 28.003906 21.8125 27.390625 C 21.71875 26.945312 20.617188 26.53125 18.367188 26.53125 Z M 17.660156 26.257812 Z M 17.660156 26.257812 " fill-opacity="1" fill-rule="nonzero"/></g><path fill="#fad26c" d="M 14.183594 28.804688 C 14.078125 28.804688 13.976562 28.746094 13.929688 28.644531 C 13.855469 28.503906 13.914062 28.332031 14.054688 28.261719 C 16.976562 26.796875 21.792969 27.734375 21.996094 27.773438 C 22.152344 27.804688 22.253906 27.957031 22.222656 28.109375 C 22.191406 28.265625 22.039062 28.367188 21.886719 28.335938 C 21.835938 28.328125 17.054688 27.394531 14.3125 28.773438 C 14.269531 28.792969 14.226562 28.804688 14.183594 28.804688 Z M 14.183594 28.804688 " fill-opacity="1" fill-rule="nonzero"/><path fill="#fad26c" d="M 15.503906 30.015625 C 15.382812 30.015625 15.273438 29.941406 15.230469 29.824219 C 15.179688 29.675781 15.257812 29.511719 15.410156 29.460938 C 18.066406 28.542969 21.832031 29.183594 21.992188 29.210938 C 22.148438 29.238281 22.25 29.386719 22.226562 29.542969 C 22.199219 29.699219 22.046875 29.804688 21.894531 29.777344 C 21.855469 29.769531 18.113281 29.132812 15.597656 30.003906 C 15.5625 30.011719 15.53125 30.015625 15.503906 30.015625 Z M 15.503906 30.015625 " fill-opacity="1" fill-rule="nonzero"/><path fill="#fad26c" d="M 21.824219 31.257812 C 21.796875 31.257812 21.765625 31.253906 21.738281 31.246094 C 21.707031 31.234375 19.820312 30.675781 17.355469 31.109375 C 17.199219 31.136719 17.050781 31.03125 17.023438 30.875 C 16.996094 30.71875 17.101562 30.570312 17.257812 30.542969 C 19.871094 30.085938 21.824219 30.671875 21.90625 30.699219 C 22.058594 30.746094 22.144531 30.90625 22.097656 31.054688 C 22.058594 31.179688 21.945312 31.257812 21.824219 31.257812 Z M 21.824219 31.257812 " fill-opacity="1" fill-rule="nonzero"/><path fill="#fad26c" d="M 20.898438 26.574219 C 20.449219 25.070312 21.113281 23.550781 21.746094 22.539062 C 22.066406 22.03125 22.429688 21.550781 22.78125 21.085938 C 23.222656 20.507812 23.675781 19.90625 24.027344 19.265625 C 24.839844 17.796875 25.140625 16.074219 24.875 14.417969 C 24.652344 13.007812 24.015625 11.679688 23.082031 10.683594 C 21.570312 9.0625 19.175781 8.195312 16.679688 8.359375 C 15.5 8.433594 13.804688 8.769531 12.417969 9.929688 C 11.078125 11.054688 10.246094 12.839844 10.195312 14.710938 C 10.148438 16.472656 10.761719 18.28125 11.921875 19.808594 C 12.261719 20.253906 12.648438 20.679688 13.023438 21.09375 C 13.492188 21.609375 13.980469 22.140625 14.386719 22.730469 C 15.289062 24.035156 15.59375 25.433594 15.222656 26.570312 L 14.679688 26.390625 C 14.996094 25.425781 14.714844 24.210938 13.914062 23.054688 C 13.527344 22.5 13.058594 21.980469 12.601562 21.480469 C 12.214844 21.058594 11.820312 20.621094 11.464844 20.15625 C 10.226562 18.523438 9.574219 16.585938 9.625 14.699219 C 9.679688 12.664062 10.585938 10.71875 12.054688 9.492188 C 13.558594 8.234375 15.382812 7.871094 16.644531 7.789062 C 19.3125 7.613281 21.875 8.546875 23.503906 10.292969 C 24.511719 11.375 25.203125 12.804688 25.445312 14.324219 C 25.730469 16.109375 25.40625 17.964844 24.53125 19.542969 C 24.160156 20.21875 23.691406 20.835938 23.238281 21.433594 C 22.894531 21.890625 22.539062 22.359375 22.234375 22.84375 C 21.664062 23.753906 21.0625 25.113281 21.449219 26.410156 Z M 20.898438 26.574219 " fill-opacity="1" fill-rule="nonzero"/><path fill="#fad26c" d="M 18.753906 26.464844 C 18.40625 25.175781 18.523438 22.859375 19.152344 21.347656 C 18.828125 21.292969 18.535156 21.195312 18.320312 21.074219 C 18.285156 21.054688 18.253906 21.035156 18.222656 21.015625 C 17.800781 21.234375 17.316406 21.355469 16.8125 21.355469 C 16.808594 21.355469 16.804688 21.355469 16.796875 21.355469 C 17.292969 22.875 17.390625 24.601562 17.070312 26.417969 L 16.507812 26.320312 C 16.824219 24.5 16.707031 22.78125 16.167969 21.292969 C 15.609375 21.179688 15.101562 20.914062 14.722656 20.527344 C 14.589844 20.394531 14.417969 20.1875 14.429688 19.910156 C 14.441406 19.710938 14.546875 19.535156 14.726562 19.421875 C 14.9375 19.289062 15.21875 19.265625 15.441406 19.359375 C 15.757812 19.492188 16.136719 19.835938 16.285156 20.128906 C 16.390625 20.335938 16.492188 20.554688 16.582031 20.773438 C 16.65625 20.78125 16.730469 20.78125 16.808594 20.78125 C 17.125 20.78125 17.433594 20.722656 17.710938 20.617188 C 17.34375 20.246094 17.128906 19.800781 17.117188 19.347656 C 17.105469 18.910156 17.34375 18.457031 17.722656 18.191406 C 18.042969 17.964844 18.414062 17.910156 18.742188 18.035156 C 19.210938 18.214844 19.519531 18.730469 19.492188 19.28125 C 19.460938 19.824219 19.152344 20.253906 18.894531 20.515625 C 18.847656 20.5625 18.800781 20.605469 18.75 20.652344 C 18.933594 20.722656 19.167969 20.777344 19.414062 20.804688 C 19.578125 20.535156 19.761719 20.3125 19.972656 20.152344 C 20.367188 19.855469 20.8125 19.84375 21.078125 19.972656 C 21.269531 20.0625 21.386719 20.230469 21.394531 20.417969 C 21.40625 20.714844 21.253906 20.976562 20.972656 21.148438 C 20.664062 21.332031 20.214844 21.40625 19.753906 21.402344 C 19.160156 22.699219 18.949219 25.011719 19.300781 26.316406 Z M 20.714844 20.464844 C 20.613281 20.464844 20.46875 20.496094 20.320312 20.609375 C 20.246094 20.664062 20.175781 20.734375 20.109375 20.816406 C 20.335938 20.792969 20.535156 20.742188 20.675781 20.65625 C 20.785156 20.589844 20.816406 20.527344 20.824219 20.480469 C 20.800781 20.472656 20.761719 20.464844 20.714844 20.464844 Z M 15.152344 19.875 C 15.109375 19.875 15.066406 19.886719 15.03125 19.90625 C 15.015625 19.917969 15.003906 19.929688 15.003906 19.9375 C 15.003906 19.949219 15.007812 20.003906 15.128906 20.125 C 15.335938 20.335938 15.597656 20.503906 15.886719 20.613281 C 15.851562 20.539062 15.8125 20.464844 15.777344 20.386719 C 15.6875 20.214844 15.414062 19.96875 15.222656 19.886719 C 15.199219 19.878906 15.175781 19.875 15.152344 19.875 Z M 18.386719 18.542969 C 18.246094 18.542969 18.125 18.609375 18.054688 18.660156 C 17.832031 18.816406 17.6875 19.085938 17.695312 19.332031 C 17.703125 19.683594 17.902344 20.035156 18.246094 20.328125 C 18.332031 20.261719 18.414062 20.191406 18.488281 20.113281 C 18.753906 19.84375 18.910156 19.535156 18.921875 19.25 C 18.9375 18.953125 18.773438 18.660156 18.542969 18.570312 C 18.488281 18.550781 18.4375 18.542969 18.386719 18.542969 Z M 18.386719 18.542969 " fill-opacity="1" fill-rule="nonzero"/><g clip-path="url(#89db3358d7)"><path fill="#fad26c" d="M 28.914062 18.285156 C 29.089844 18.132812 29.332031 18.183594 29.53125 18.246094 C 30.492188 18.542969 31.453125 18.835938 32.410156 19.128906 C 32.585938 19.183594 32.777344 19.253906 32.847656 19.4375 C 32.878906 19.519531 32.878906 19.613281 32.875 19.703125 C 32.847656 20.207031 32.496094 21.074219 31.53125 20.800781 C 31.117188 20.683594 27.679688 19.351562 28.914062 18.285156 Z M 28.914062 18.285156 " fill-opacity="1" fill-rule="nonzero"/></g><path fill="#fad26c" d="M 21.996094 4.953125 C 21.875 4.78125 21.9375 4.546875 22.007812 4.351562 C 22.339844 3.402344 22.671875 2.457031 23.003906 1.507812 C 23.0625 1.335938 23.140625 1.148438 23.308594 1.074219 C 23.382812 1.042969 23.464844 1.042969 23.546875 1.042969 C 23.988281 1.058594 25.132812 1.765625 24.65625 2.511719 C 24.429688 2.875 22.855469 6.136719 21.996094 4.953125 Z M 21.996094 4.953125 " fill-opacity="1" fill-rule="nonzero"/><path fill="#fad26c" d="M 14.667969 3.121094 C 14.6875 3.351562 14.703125 3.585938 14.636719 3.804688 C 14.570312 4.027344 14.398438 4.230469 14.171875 4.269531 C 13.96875 4.304688 13.757812 4.199219 13.613281 4.046875 C 13.472656 3.894531 13.386719 3.699219 13.300781 3.507812 C 13.042969 2.925781 12.785156 2.339844 12.527344 1.753906 C 12.339844 1.328125 12.15625 0.792969 12.441406 0.417969 C 12.582031 0.234375 12.808594 0.136719 13.035156 0.0820312 C 13.335938 0.0078125 13.664062 0 13.941406 0.132812 C 14.765625 0.523438 14.605469 2.363281 14.667969 3.121094 Z M 14.667969 3.121094 " fill-opacity="1" fill-rule="nonzero"/><g clip-path="url(#26defad4b8)"><path fill="#fad26c" d="M 29.511719 10.183594 C 29.292969 10.210938 29.0625 10.242188 28.835938 10.199219 C 28.609375 10.15625 28.386719 10.027344 28.308594 9.839844 C 28.242188 9.671875 28.3125 9.492188 28.4375 9.363281 C 28.566406 9.238281 28.742188 9.152344 28.914062 9.070312 C 29.441406 8.820312 29.972656 8.570312 30.503906 8.320312 C 30.890625 8.136719 31.382812 7.957031 31.796875 8.167969 C 32 8.273438 32.132812 8.457031 32.222656 8.640625 C 32.34375 8.886719 32.402344 9.15625 32.316406 9.398438 C 32.066406 10.105469 30.242188 10.085938 29.511719 10.183594 Z M 29.511719 10.183594 " fill-opacity="1" fill-rule="nonzero"/></g><path fill="#fad26c" d="M 8.382812 7.597656 C 8.207031 7.992188 7.582031 7.777344 7.179688 7.6875 C 6.316406 7.492188 5.460938 7.25 4.617188 6.957031 C 4.40625 6.882812 4.164062 6.765625 4.128906 6.511719 C 4.109375 6.367188 4.164062 6.226562 4.222656 6.097656 C 4.65625 5.125 4.972656 4.921875 5.863281 5.347656 C 6.648438 5.730469 8.742188 6.800781 8.382812 7.597656 Z M 8.382812 7.597656 " fill-opacity="1" fill-rule="nonzero"/><g clip-path="url(#5451b89a3b)"><path fill="#fad26c" d="M 5.621094 13.761719 C 5.621094 14.160156 3.894531 14.460938 2.871094 14.511719 C 2.5 14.53125 1.5 14.5625 1.210938 14.332031 C 0.917969 14.101562 0.621094 12.9375 1.023438 12.710938 C 1.753906 12.300781 5.625 12.300781 5.621094 13.761719 Z M 5.621094 13.761719 " fill-opacity="1" fill-rule="nonzero"/></g><path fill="#fad26c" d="M 6.222656 22.296875 C 5.957031 22.542969 5.6875 22.796875 5.363281 22.960938 C 5.042969 23.128906 4.488281 23.300781 4.15625 22.921875 C 3.890625 22.617188 3.859375 22.109375 4.121094 21.855469 C 4.992188 21.015625 6.003906 20.503906 6.84375 20.367188 C 8.59375 20.085938 6.644531 21.90625 6.222656 22.296875 Z M 6.222656 22.296875 " fill-opacity="1" fill-rule="nonzero"/></svg>