<svg xmlns="http://www.w3.org/2000/svg" xmlns:xlink="http://www.w3.org/1999/xlink" width="45" zoomAndPan="magnify" viewBox="0 0 33.75 33.749999" height="45" preserveAspectRatio="xMidYMid meet" version="1.0"><defs><clipPath id="99d76020fa"><path d="M 0 0 L 33.5 0 L 33.5 33.5 L 0 33.5 Z M 0 0 " clip-rule="nonzero"/></clipPath><clipPath id="924de4270d"><path d="M 0 2.386719 L 33.5 2.386719 L 33.5 31.421875 L 0 31.421875 Z M 0 2.386719 " clip-rule="nonzero"/></clipPath></defs><g clip-path="url(#99d76020fa)"><path fill="#ffffff" d="M 0 0 L 33.5 0 L 33.5 33.5 L 0 33.5 Z M 0 0 " fill-opacity="1" fill-rule="nonzero"/><path fill="#ffffff" d="M 0 0 L 33.5 0 L 33.5 33.5 L 0 33.5 Z M 0 0 " fill-opacity="1" fill-rule="nonzero"/></g><g clip-path="url(#924de4270d)"><path fill="#ff3131" d="M 30.511719 13.351562 C 29.835938 13.351562 29.191406 13.578125 28.667969 13.996094 C 27.75 13.28125 23.410156 10.238281 19.363281 13.25 C 19.1875 12.414062 18.914062 10.339844 19.96875 8.496094 C 20.980469 6.722656 22.226562 6.074219 22.785156 5.863281 C 22.960938 7.417969 24.285156 8.628906 25.886719 8.628906 C 27.609375 8.628906 29.007812 7.230469 29.007812 5.507812 C 29.007812 3.789062 27.609375 2.386719 25.886719 2.386719 C 24.898438 2.386719 23.984375 2.851562 23.394531 3.636719 C 22.539062 3.382812 18.988281 2.542969 16.128906 5.09375 C 13.589844 7.359375 13.394531 10.980469 13.421875 12.394531 C 12.285156 11.511719 11.054688 10.953125 9.765625 10.734375 C 4.835938 9.882812 2.867188 13.300781 2.488281 14.085938 C 1.117188 14.175781 0.0273438 15.316406 0.0273438 16.710938 C 0.0273438 18.164062 1.210938 19.347656 2.660156 19.347656 C 4.113281 19.347656 5.292969 18.164062 5.292969 16.710938 C 5.292969 15.925781 4.953125 15.203125 4.363281 14.707031 C 4.867188 14.460938 5.839844 14.101562 6.882812 14.351562 C 7.804688 14.570312 8.589844 15.226562 9.21875 16.296875 C 10.636719 18.714844 10.246094 23.273438 9.890625 25.777344 C 9.890625 25.777344 9.890625 25.777344 9.890625 25.78125 C 9.679688 27.269531 9.4375 28.316406 9.4375 28.328125 C 9.417969 28.410156 9.441406 28.5 9.496094 28.5625 C 9.515625 28.585938 9.964844 29.082031 10.976562 29.632812 C 11.957031 30.167969 13.105469 30.558594 14.390625 30.804688 C 14.390625 30.804688 14.394531 30.804688 14.394531 30.804688 C 15.441406 31.007812 16.589844 31.113281 17.800781 31.113281 C 17.804688 31.113281 17.808594 31.113281 17.808594 31.113281 C 19.113281 31.113281 20.347656 30.976562 21.472656 30.710938 C 22.636719 30.4375 23.683594 30.023438 24.578125 29.488281 C 24.582031 29.484375 24.585938 29.480469 24.589844 29.480469 C 24.59375 29.476562 24.597656 29.476562 24.601562 29.472656 C 24.601562 29.472656 24.601562 29.46875 24.605469 29.46875 C 25.652344 28.835938 26.117188 28.257812 26.136719 28.234375 C 26.195312 28.15625 26.207031 28.054688 26.171875 27.96875 C 26.167969 27.957031 25.792969 27.042969 25.394531 25.738281 C 24.792969 23.773438 23.90625 20.167969 24.761719 18.058594 C 25.242188 16.863281 25.859375 16.105469 26.59375 15.800781 C 27.023438 15.625 27.394531 15.648438 27.613281 15.695312 C 27.570312 15.894531 27.546875 16.101562 27.546875 16.3125 C 27.546875 17.945312 28.878906 19.273438 30.511719 19.273438 C 32.144531 19.273438 33.472656 17.945312 33.472656 16.3125 C 33.472656 14.679688 32.144531 13.351562 30.511719 13.351562 Z M 25.886719 2.917969 C 27.316406 2.917969 28.476562 4.078125 28.476562 5.507812 C 28.476562 6.9375 27.316406 8.097656 25.886719 8.097656 C 24.457031 8.097656 23.292969 6.9375 23.292969 5.507812 C 23.292969 5.003906 23.441406 4.515625 23.714844 4.089844 C 24.199219 3.355469 25.007812 2.917969 25.886719 2.917969 Z M 16.484375 5.488281 C 18.964844 3.277344 22.117188 3.851562 23.097656 4.105469 C 22.910156 4.480469 22.796875 4.886719 22.769531 5.304688 C 22.222656 5.472656 20.714844 6.117188 19.507812 8.234375 C 18.222656 10.480469 18.730469 12.953125 18.902344 13.621094 C 18.832031 13.679688 18.761719 13.742188 18.691406 13.804688 C 17.945312 14.492188 17.292969 15.363281 16.742188 16.398438 C 16.339844 15.644531 15.425781 14.148438 13.976562 12.855469 C 13.921875 12.152344 13.730469 7.945312 16.484375 5.488281 Z M 4.761719 16.710938 C 4.761719 17.871094 3.820312 18.816406 2.660156 18.816406 C 1.503906 18.816406 0.558594 17.871094 0.558594 16.710938 C 0.558594 15.550781 1.503906 14.609375 2.660156 14.609375 C 3.039062 14.609375 3.410156 14.710938 3.738281 14.902344 C 4.378906 15.289062 4.761719 15.964844 4.761719 16.710938 Z M 9.675781 16.027344 C 8.972656 14.828125 8.074219 14.089844 7.007812 13.832031 C 5.582031 13.492188 4.285156 14.128906 3.863281 14.371094 C 3.609375 14.242188 3.34375 14.15625 3.066406 14.109375 C 3.574219 13.15625 5.390625 10.515625 9.675781 11.257812 C 11.042969 11.492188 12.339844 12.136719 13.53125 13.167969 C 13.53125 13.171875 13.535156 13.171875 13.535156 13.171875 C 13.535156 13.175781 13.539062 13.175781 13.539062 13.175781 C 13.542969 13.179688 13.542969 13.183594 13.546875 13.183594 C 15.25 14.671875 16.222656 16.527344 16.449219 16.988281 C 14.535156 21.0625 14.578125 26.1875 14.628906 27.503906 C 11.96875 27.027344 10.734375 26.011719 10.433594 25.722656 C 10.867188 22.59375 11.082031 18.425781 9.675781 16.027344 Z M 13.261719 27.949219 L 14.035156 30.191406 C 13.136719 29.988281 12.3125 29.703125 11.582031 29.347656 Z M 16.375 28.488281 L 17.382812 30.574219 C 16.519531 30.554688 15.695312 30.484375 14.921875 30.355469 Z M 19.460938 28.417969 L 20.9375 30.28125 C 20.097656 30.449219 19.203125 30.546875 18.269531 30.570312 Z M 22.589844 27.8125 L 24 29.199219 C 23.347656 29.554688 22.621094 29.84375 21.824219 30.066406 Z M 10.21875 27.101562 L 10.675781 28.835938 C 10.328125 28.605469 10.101562 28.410156 9.984375 28.300781 C 10.03125 28.09375 10.117188 27.667969 10.21875 27.101562 Z M 24.828125 28.6875 L 25.199219 26.859375 C 25.382812 27.402344 25.539062 27.808594 25.621094 28.015625 C 25.492188 28.152344 25.230469 28.398438 24.828125 28.6875 Z M 26.40625 15.304688 C 25.527344 15.660156 24.808594 16.519531 24.269531 17.859375 C 23.417969 19.964844 24.097656 23.277344 24.84375 25.742188 C 24.460938 26.101562 22.902344 27.351562 19.398438 27.675781 C 18.46875 27.761719 17.488281 27.777344 16.445312 27.722656 C 15.992188 27.691406 15.566406 27.644531 15.164062 27.585938 C 15.121094 26.46875 15.035156 21.136719 16.980469 17.101562 C 17.546875 15.917969 18.246094 14.941406 19.050781 14.195312 C 19.15625 14.097656 19.261719 14.003906 19.375 13.914062 C 23.1875 10.746094 27.304688 13.597656 28.285156 14.367188 C 28.070312 14.613281 27.898438 14.890625 27.777344 15.1875 C 27.484375 15.121094 26.984375 15.074219 26.40625 15.304688 Z M 30.511719 18.742188 C 29.171875 18.742188 28.078125 17.652344 28.078125 16.3125 C 28.078125 16.066406 28.117188 15.824219 28.191406 15.589844 C 28.3125 15.191406 28.542969 14.828125 28.851562 14.535156 C 29.304688 14.113281 29.894531 13.882812 30.511719 13.882812 C 31.851562 13.882812 32.941406 14.972656 32.941406 16.3125 C 32.941406 17.652344 31.851562 18.742188 30.511719 18.742188 Z M 30.511719 18.742188 " fill-opacity="1" fill-rule="nonzero"/></g><path fill="#ff3131" d="M 31.730469 14.953125 C 31.234375 14.601562 30.632812 14.625 30.363281 15.007812 C 30.253906 15.160156 30.210938 15.351562 30.246094 15.554688 C 30.296875 15.839844 30.484375 16.121094 30.761719 16.316406 C 30.984375 16.472656 31.242188 16.5625 31.484375 16.566406 C 31.488281 16.566406 31.492188 16.566406 31.496094 16.566406 C 31.765625 16.566406 32 16.457031 32.136719 16.261719 C 32.40625 15.878906 32.226562 15.304688 31.730469 14.953125 Z M 31.730469 14.953125 " fill-opacity="1" fill-rule="nonzero"/><path fill="#ff3131" d="M 2.714844 16.691406 C 2.433594 16.496094 2.105469 16.410156 1.820312 16.460938 C 1.617188 16.496094 1.453125 16.59375 1.347656 16.746094 C 1.238281 16.898438 1.195312 17.09375 1.230469 17.296875 C 1.28125 17.582031 1.46875 17.859375 1.746094 18.058594 C 1.980469 18.222656 2.242188 18.304688 2.476562 18.304688 C 2.738281 18.304688 2.972656 18.207031 3.117188 18.003906 C 3.222656 17.851562 3.265625 17.65625 3.230469 17.457031 C 3.183594 17.167969 2.992188 16.890625 2.714844 16.691406 Z M 2.714844 16.691406 " fill-opacity="1" fill-rule="nonzero"/><path fill="#ff3131" d="M 27.21875 6.449219 C 27.6875 6.449219 28.054688 5.972656 28.054688 5.363281 C 28.054688 4.753906 27.6875 4.277344 27.21875 4.277344 C 26.75 4.277344 26.382812 4.753906 26.382812 5.363281 C 26.382812 5.972656 26.75 6.449219 27.21875 6.449219 Z M 27.21875 6.449219 " fill-opacity="1" fill-rule="nonzero"/></svg>