<svg xmlns="http://www.w3.org/2000/svg" xmlns:xlink="http://www.w3.org/1999/xlink" width="45" zoomAndPan="magnify" viewBox="0 0 33.75 33.749999" height="45" preserveAspectRatio="xMidYMid meet" version="1.0"><defs><clipPath id="690e596d93"><path d="M 4 6 L 31.148438 6 L 31.148438 33.5 L 4 33.5 Z M 4 6 " clip-rule="nonzero"/></clipPath><clipPath id="7cfdae7910"><path d="M 2.113281 0 L 20 0 L 20 31 L 2.113281 31 Z M 2.113281 0 " clip-rule="nonzero"/></clipPath></defs><g clip-path="url(#690e596d93)"><path fill="#fad26c" d="M 31.363281 12.609375 C 31.355469 12.546875 31.128906 11.109375 28.890625 8.871094 C 26.652344 6.632812 25.210938 6.40625 25.152344 6.398438 C 25.078125 6.386719 25.007812 6.417969 24.96875 6.480469 C 23.6875 8.535156 22.605469 12.03125 22.472656 12.472656 L 16.453125 18.925781 C 16.421875 18.957031 16.402344 18.992188 16.386719 19.03125 L 15.171875 20.242188 L 12.769531 22.644531 L 12.402344 23.015625 L 11.382812 24.03125 L 7.230469 28.183594 L 6.863281 28.554688 L 5.84375 29.570312 L 4.742188 30.671875 C 4.65625 30.757812 4.578125 30.855469 4.515625 30.957031 C 4.441406 31.070312 4.382812 31.195312 4.339844 31.324219 C 4.285156 31.488281 4.257812 31.664062 4.257812 31.84375 C 4.257812 32.015625 4.28125 32.183594 4.332031 32.339844 C 4.347656 32.386719 4.363281 32.433594 4.382812 32.480469 C 4.414062 32.558594 4.453125 32.636719 4.496094 32.707031 C 4.566406 32.820312 4.648438 32.925781 4.742188 33.019531 C 5.054688 33.332031 5.472656 33.503906 5.914062 33.503906 C 6.359375 33.503906 6.777344 33.332031 7.089844 33.019531 L 7.398438 32.707031 L 7.769531 32.339844 L 9.152344 30.957031 L 10.167969 29.9375 L 10.539062 29.570312 L 11.554688 28.554688 L 11.921875 28.183594 L 13.304688 26.800781 L 14.324219 25.785156 L 14.691406 25.414062 L 16.074219 24.03125 L 17.09375 23.015625 L 17.460938 22.644531 L 18.730469 21.375 C 18.769531 21.359375 18.804688 21.339844 18.835938 21.308594 L 25.289062 15.289062 C 25.730469 15.15625 29.226562 14.074219 31.28125 12.792969 C 31.339844 12.753906 31.375 12.679688 31.363281 12.609375 Z M 18.585938 21.039062 L 16.722656 19.175781 L 22.640625 12.832031 L 24.929688 15.121094 Z M 25.246094 14.917969 L 24.808594 14.476562 C 25.320312 14.242188 26.550781 13.644531 27.691406 12.816406 C 27.773438 12.757812 27.789062 12.640625 27.730469 12.558594 C 27.671875 12.476562 27.554688 12.460938 27.472656 12.519531 C 26.25 13.410156 24.917969 14.027344 24.527344 14.199219 L 24.140625 13.8125 L 25.425781 12.53125 C 25.496094 12.457031 25.496094 12.339844 25.425781 12.269531 C 25.351562 12.199219 25.234375 12.199219 25.164062 12.269531 L 23.882812 13.550781 L 23.5625 13.230469 C 23.734375 12.84375 24.351562 11.511719 25.242188 10.285156 C 25.300781 10.203125 25.28125 10.089844 25.199219 10.03125 C 25.117188 9.96875 25.003906 9.988281 24.945312 10.070312 C 24.117188 11.210938 23.519531 12.4375 23.285156 12.953125 L 22.84375 12.515625 C 23.035156 11.898438 24.046875 8.714844 25.214844 6.789062 C 25.585938 6.890625 26.84375 7.34375 28.628906 9.132812 C 30.417969 10.917969 30.871094 12.175781 30.972656 12.546875 C 29.046875 13.710938 25.859375 14.726562 25.246094 14.917969 Z M 25.246094 14.917969 " fill-opacity="1" fill-rule="nonzero"/></g><g clip-path="url(#7cfdae7910)"><path fill="#fad26c" d="M 4.664062 29.421875 L 4.941406 28.867188 L 5.175781 28.402344 L 5.78125 27.1875 L 6.015625 26.722656 L 6.621094 25.507812 L 6.855469 25.042969 L 7.460938 23.832031 L 7.695312 23.367188 L 8.300781 22.152344 L 8.53125 21.6875 L 9.140625 20.472656 L 9.371094 20.007812 L 9.980469 18.796875 L 10.210938 18.328125 L 10.820312 17.117188 L 11.050781 16.652344 L 11.660156 15.4375 L 11.890625 14.972656 L 12.121094 14.515625 L 16.1875 7.207031 L 19.78125 3.710938 C 19.988281 3.503906 20.003906 3.179688 19.828125 2.953125 C 17.515625 0.00390625 15.050781 0.996094 14.09375 1.5625 C 13.824219 1.722656 13.644531 1.996094 13.601562 2.3125 L 13.160156 5.691406 L 9.746094 13.335938 L 9.175781 14.480469 L 8.941406 14.945312 L 8.335938 16.15625 L 8.101562 16.621094 L 7.496094 17.835938 L 7.261719 18.300781 L 6.65625 19.515625 L 6.425781 19.980469 L 5.816406 21.191406 L 5.585938 21.65625 L 4.976562 22.871094 L 4.746094 23.335938 L 4.136719 24.550781 L 3.90625 25.015625 L 3.066406 26.695312 L 2.457031 27.90625 L 2.292969 28.238281 C 2.273438 28.28125 2.253906 28.324219 2.238281 28.367188 C 2.128906 28.652344 2.125 28.957031 2.222656 29.25 C 2.234375 29.289062 2.25 29.328125 2.269531 29.367188 C 2.320312 29.484375 2.386719 29.59375 2.46875 29.691406 C 2.472656 29.695312 2.472656 29.695312 2.476562 29.699219 C 2.589844 29.828125 2.726562 29.9375 2.886719 30.015625 C 3.074219 30.109375 3.277344 30.15625 3.476562 30.15625 C 3.960938 30.15625 4.429688 29.886719 4.664062 29.421875 Z M 13.964844 2.359375 C 13.992188 2.15625 14.109375 1.980469 14.28125 1.878906 C 16.894531 0.332031 18.828125 2.273438 19.539062 3.179688 C 19.601562 3.261719 19.59375 3.375 19.523438 3.445312 L 16.003906 6.871094 L 15.585938 6.660156 L 16.652344 5.125 C 16.707031 5.039062 16.6875 4.925781 16.605469 4.867188 C 16.519531 4.8125 16.40625 4.832031 16.347656 4.914062 L 15.253906 6.496094 L 14.769531 6.253906 L 14.289062 6.011719 L 14.671875 4.132812 C 14.691406 4.035156 14.628906 3.9375 14.527344 3.917969 C 14.429688 3.898438 14.332031 3.960938 14.3125 4.0625 L 13.949219 5.84375 L 13.539062 5.636719 Z M 13.429688 5.992188 L 14.605469 6.582031 L 15.234375 6.898438 L 15.785156 7.171875 L 11.878906 14.1875 L 10.15625 13.324219 Z M 13.429688 5.992188 " fill-opacity="1" fill-rule="nonzero"/></g></svg>